<svg width="580" height="400" xmlns="http://www.w3.org/2000/svg">
 <!-- Created with Method Draw - http://github.com/duopixel/Method-Draw/ -->

 <style>path, g {
    fill: #FF7800;
   }</style>
 <g>
  <title>background</title>
  <rect x="-1" y="-1" width="582" height="402" id="canvas_background" fill="none"/>
  <g id="canvasGrid" display="none">
   <rect id="svg_1" width="100%" height="100%" x="0" y="0" stroke-width="0" fill="url(#gridpattern)"/>
  </g>
 </g>
 <g>
  <title>Layer 1</title>
  <g id="svg_9" stroke="null">
   <path d="m382.26156,117.74279c-0.75097,-0.34024 -1.63419,-0.00699 -1.97384,0.74339s-0.00699,1.63419 0.74339,1.97385c7.49397,3.39305 11.79181,7.43687 11.79181,11.09443c0,8.75297 -11.56809,10.92665 -16.54115,11.45506c-7.52776,0.79991 -12.72396,3.34645 -17.30902,5.59295c-4.7843,2.34438 -8.91668,4.36891 -14.92036,4.36891c-11.92464,0 -21.62607,-8.91667 -21.62607,-19.87711c0,-5.43798 2.0222,-9.79757 6.01067,-12.95817c9.50976,-7.53533 27.56101,-6.76397 40.12942,-3.81311c0.80165,0.18818 1.60447,-0.30936 1.79324,-1.11101c0.18818,-0.80224 -0.30936,-1.60506 -1.11102,-1.79324c-7.82139,-1.83577 -16.05876,-2.55936 -23.19559,-2.03619c-8.19717,0.60008 -14.92969,2.81862 -19.46813,6.41558c-4.73886,3.75485 -7.1415,8.90153 -7.1415,15.29614l0,8.9493c0,12.60511 11.03967,22.86002 24.60898,22.86002c6.69523,0 11.32806,-2.27039 16.23296,-4.67361c4.57631,-2.24242 9.3076,-4.56116 16.3116,-5.30514c5.56732,-0.59134 10.23918,-2.07755 13.50989,-4.29667c3.72864,-2.52965 5.69899,-6.03048 5.69899,-10.12499l0,-8.94872c0,-4.95209 -4.80994,-9.85699 -13.54427,-13.81168l0,0.00001zm10.56136,22.76039c0,8.75297 -11.56809,10.92723 -16.54115,11.45565c-7.52776,0.79932 -12.72396,3.34586 -17.30902,5.59236c-4.7843,2.34438 -8.91668,4.36949 -14.92036,4.36949c-11.12822,0 -20.31872,-7.76604 -21.49732,-17.711c4.21161,7.0005 12.26837,11.74461 21.49732,11.74461c6.69523,0 11.32806,-2.26981 16.23296,-4.67361c4.57573,-2.24184 9.3076,-4.56059 16.31102,-5.30456c5.5679,-0.59193 10.23976,-2.07755 13.51047,-4.29667c1.04519,-0.70903 1.95171,-1.49437 2.71608,-2.34788l0,1.17161zm0,0" id="svg_4" stroke="null"/>
   <path d="m342.26614,149.9075c0.59483,0.05359 1.19608,0.08098 1.78625,0.08098c3.19556,0 6.04563,-0.64144 9.52957,-2.14455c1.55263,-0.66999 3.0802,-1.41746 4.55767,-2.13989c1.53341,-0.7498 3.11807,-1.52582 4.70274,-2.19814c4.36775,-1.85616 8.66092,-2.98815 13.12421,-3.46239c1.79848,-0.19109 11.29485,-2.15095 13.01468,-6.85311c0.44977,-1.2287 0.55463,-3.14312 -1.49728,-5.2865c-1.66157,-1.73615 -3.41345,-2.61937 -5.26728,-3.55444c-0.18585,-0.0938 -0.37461,-0.18876 -0.56628,-0.28664c-6.08525,-3.09535 -14.01151,-5.35292 -22.31937,-6.35615c-3.24275,-0.39151 -9.66648,-0.91177 -16.25684,0.00174c-7.02965,0.97411 -12.05514,3.29227 -14.93784,6.88982c-1.83519,2.28962 -2.72715,5.06861 -2.72715,8.49604c0,3.8003 1.33299,7.36114 3.85389,10.29686c0.53658,0.62454 1.47864,0.69679 2.10319,0.15963c0.62513,-0.53657 0.6962,-1.47864 0.15963,-2.10318c-2.05017,-2.38749 -3.1338,-5.27544 -3.1338,-8.35331c0,-2.72248 0.67756,-4.8915 2.07172,-6.63114c2.38982,-2.98232 6.77038,-4.93403 13.01934,-5.80036c6.49074,-0.89953 12.99487,-0.29596 15.48956,0.00525c7.97054,0.96245 15.54316,3.11224 21.32487,6.0532c0.19517,0.09963 0.38685,0.19634 0.57561,0.2913c1.75887,0.8873 3.14836,1.58758 4.45572,2.95378c1.19782,1.25142 0.94614,1.94005 0.85117,2.19931c-0.88147,2.40963 -7.40949,4.57981 -10.52872,4.91131c-4.761,0.50628 -9.33208,1.71109 -13.97539,3.68319c-1.65749,0.70378 -3.27887,1.49728 -4.84722,2.26398c-1.44601,0.70786 -2.94155,1.43902 -4.42834,2.08104c-3.08777,1.33241 -5.58421,1.90044 -8.34806,1.90044c-0.50104,0 -1.01139,-0.0233 -1.51709,-0.06875c-0.82088,-0.0769 -1.54563,0.53017 -1.62021,1.35047c-0.07399,0.8203 0.53075,1.54563 1.35105,1.62021zm0,0" id="svg_5" stroke="null"/>
   <path d="m343.9784,141.48137c3.88885,0 6.93526,-2.0962 6.93526,-4.77265s-3.04641,-4.77266 -6.93526,-4.77266c-3.88943,0 -6.93526,2.09619 -6.93526,4.77266s3.04583,4.77265 6.93526,4.77265zm0,-6.5624c2.37584,0 3.95235,1.07723 3.95235,1.78975s-1.57651,1.78974 -3.95235,1.78974c-2.37642,0 -3.95235,-1.07723 -3.95235,-1.78974s1.57593,-1.78975 3.95235,-1.78975zm0,0" id="svg_6" stroke="null"/>
   <path d="m336.4116,145.20592l-0.00116,-0.00058c-0.75738,-0.32451 -1.63361,0.0268 -1.95753,0.78359c-0.32451,0.75738 0.02621,1.63419 0.78359,1.9587c0.19168,0.08215 0.39092,0.12118 0.58668,0.12118c0.57852,0 1.12907,-0.33907 1.37144,-0.90419c0.3245,-0.75738 -0.02564,-1.63419 -0.78302,-1.9587zm0,0" id="svg_7" stroke="null"/>
   <path d="m374.97034,118.11332c0.13691,0.03903 0.27498,0.05768 0.41073,0.05768c0.64901,0 1.24618,-0.42705 1.43319,-1.08189c0.22663,-0.79233 -0.23245,-1.61788 -1.02421,-1.84393l-0.00116,-0.00058c-0.79234,-0.22546 -1.61671,0.23304 -1.84334,1.02479c-0.22605,0.79176 0.23304,1.6173 1.02479,1.84393zm0,0" id="svg_8" stroke="null"/>
  </g>
  <g id="svg_46" stroke="null">
   <path d="m501.56941,336.81379c0.4107,-0.58144 0.75726,-1.21364 1.0286,-1.88969c1.35117,-3.36544 0.54684,-6.91778 -2.1518,-9.50243c-4.38666,-4.20208 -10.30538,-6.51632 -16.66526,-6.51632c-3.27084,0 -6.42402,0.61144 -9.38153,1.81863c-2.95706,-1.20719 -6.11069,-1.81863 -9.38108,-1.81863c-3.10979,0 -6.12222,0.55606 -8.96068,1.6525c-2.83892,-1.09736 -5.85134,-1.6525 -8.96114,-1.6525c-6.35988,0 -12.2786,2.31424 -16.66572,6.51632c-2.69818,2.58465 -3.50297,6.13699 -2.15134,9.50243c0.27088,0.67605 0.6179,1.30733 1.02768,1.88877c-0.92801,0.92985 -1.41347,1.98475 -1.41347,3.08995c0,1.02445 0.41624,1.99537 1.20119,2.86338c-1.35901,1.51636 -0.99491,4.48034 3.53481,5.14577c3.52788,0.52283 5.16376,-1.34286 6.30588,0.39824c0.57822,0.89339 2.15273,2.48636 4.3419,2.84722c1.71711,0.27827 3.46236,-0.22334 4.78583,-1.37515c0.60406,-0.52469 1.425,-0.40148 1.91646,0.22888c1.08628,1.39869 2.68802,2.26763 4.39497,2.38392c1.70879,0.11721 3.40098,-0.52884 4.63816,-1.77479c0.54868,-0.55145 1.371,-0.54222 1.91045,0.06784c2.46883,2.79369 6.62061,2.73878 9.04052,0c0.5376,-0.60775 1.36085,-0.62113 1.91045,-0.0683c2.60496,2.62157 6.76828,2.30824 9.03267,-0.60682c0.5173,-0.66451 1.34286,-0.72912 1.916,-0.23074c2.13888,1.8597 5.4591,2.09597 8.03591,-0.26441c1.56943,-1.28933 1.04752,-2.45683 3.87674,-1.76925c1.78171,0.44439 3.79692,0.32671 5.45034,-0.36686c0.37563,0.45592 0.58329,1.02767 0.58329,1.63727l0,1.65711c0,1.425 -1.15873,2.58419 -2.58281,2.58419l-65.49539,0c-1.42407,0 -2.58327,-1.15919 -2.58327,-2.58419l0,-0.96169c0,-0.6119 -0.49607,-1.10751 -1.10751,-1.10751s-1.10658,0.49561 -1.10658,1.10751l0,0.96169c0,2.64649 2.1518,4.79921 4.79736,4.79921l63.08656,0c0.54775,1.50714 0.3604,3.21178 -0.53853,4.66446c-1.18734,1.91969 -3.36868,3.0655 -5.83381,3.0655l-47.93305,0c-3.87259,0 -6.13145,-2.58696 -6.59199,-4.9898c-0.1149,-0.60128 -0.69542,-0.99399 -1.29579,-0.87908c-0.60036,0.11444 -0.99399,0.69496 -0.87908,1.29579c0.35348,1.84538 1.38485,3.54172 2.90398,4.77706c1.61973,1.31563 3.64648,2.01105 5.86288,2.01105l47.93305,0c3.23716,0 6.12222,-1.53806 7.71658,-4.1144c1.11443,-1.80063 1.44207,-3.89013 0.96584,-5.83058l0.09875,0c2.6451,0 4.79737,-2.15272 4.79737,-4.79921l0,-1.65711c0,-1.06552 -0.36133,-2.09504 -0.99907,-2.92614c0.26257,-0.37471 0.4287,-0.80848 0.47623,-1.26671c0.07799,-0.74896 -0.16659,-1.49376 -0.67374,-2.06505c0.78172,-0.86709 1.19704,-1.83569 1.19704,-2.8583c-0.00046,-1.10335 -0.48777,-2.15918 -1.41485,-3.08903zm-70.74775,7.34603c1.20718,0.73649 2.58188,1.24225 3.94135,1.58973c-1.80663,0.2012 -4.88181,-0.51499 -3.94135,-1.58973zm-0.71389,-4.257c0,-0.54729 0.30872,-1.04106 0.68389,-1.4393c1.82878,1.60866 4.28791,2.54681 6.9644,2.54681l12.74975,0c-1.19427,1.67742 -4.96996,3.20948 -9.99805,3.20948c-6.12915,0 -10.39999,-2.27548 -10.39999,-4.31699zm59.3464,7.90301c-0.17766,0.14675 -0.35394,0.3461 -0.71019,0.57914c-1.31378,0.87124 -3.11256,0.904 -4.46834,-0.27503c-1.53759,-1.33548 -3.82229,-1.11859 -5.11624,0.54268c-1.45268,1.8703 -4.04841,2.08258 -5.71429,0.40562c-0.70696,-0.71065 -1.63081,-1.08444 -2.60403,-1.0526c-0.97,0.03231 -1.87031,0.46377 -2.53574,1.21596c-1.57266,1.77986 -4.16055,1.7674 -5.7226,0c-1.36916,-1.54959 -3.66908,-1.64189 -5.14023,-0.16336c-1.65803,1.67003 -4.25376,1.47437 -5.71521,-0.40747c-1.28195,-1.64604 -3.56526,-1.88738 -5.11578,-0.54037c-1.4213,1.23625 -3.40051,1.1795 -4.80475,0.02492c-1.16242,-0.95939 -0.87539,-1.01199 -1.55513,-1.70326c6.15499,0.05906 11.67824,-2.06966 12.70084,-5.42173l0.04061,0c1.61696,5.2999 13.97816,7.06546 21.05423,3.72954c2.07012,-0.97599 3.39267,-2.27362 3.83706,-3.72954l0.04015,0c1.1352,3.7217 7.35848,5.47572 12.70914,5.42173c-0.58929,0.60451 -0.5293,0.83663 -1.1795,1.37377zm-34.01441,-6.7955l19.99749,0c-1.19473,1.67742 -4.96996,3.20948 -9.99851,3.20948c-5.02902,0 -8.80425,-1.53206 -9.99898,-3.20948l0,0zm44.8191,3.58603c-0.05999,0.57406 -1.99536,1.39408 -4.14117,1.15273c1.35947,-0.34794 2.73602,-0.85463 3.94505,-1.59343c0.12229,0.14075 0.21689,0.24135 0.19612,0.4407zm-9.88868,-0.37655c-5.02856,0 -8.80425,-1.53206 -9.99851,-3.20948l12.74929,0c2.67648,0 5.13561,-0.93723 6.96485,-2.54635c0.37102,0.39409 0.68389,0.88924 0.68389,1.43884c0,2.04151 -4.2713,4.31699 -10.39952,4.31699zm10.17294,-10.12034c-1.14489,2.8523 -4.05856,4.69584 -7.42216,4.69584l-55.36491,0c-3.3636,0 -6.27681,-1.84354 -7.42216,-4.69584c-1.00183,-2.49605 -0.3927,-5.14208 1.6285,-7.07838c3.97319,-3.80522 9.34739,-5.90072 15.13413,-5.90072c2.06735,0 4.08579,0.26903 6.02901,0.80156c-2.49052,1.37193 -5.64876,3.70232 -6.84718,6.41941c-0.24642,0.56021 0.00692,1.21365 0.56621,1.46053c0.55837,0.24642 1.21272,-0.00554 1.46007,-0.56622c0.35486,-0.80479 0.88647,-1.55005 1.58051,-2.21456c1.88,-1.80062 4.0964,-3.22885 6.58784,-4.24499c0.00138,-0.00046 0.00184,-0.00092 0.00277,-0.00092c2.69402,-1.09828 5.56754,-1.65481 8.54305,-1.65481c2.26856,0 4.47389,0.32349 6.58415,0.96123c-1.63865,0.93354 -3.14117,2.05074 -4.4868,3.34006c-0.65574,0.62805 -1.25333,1.5699 -1.77617,2.80108c-0.31148,0.73373 0.23258,1.54083 1.01891,1.54083c0.43055,0 0.84032,-0.25335 1.01983,-0.67512c0.39825,-0.93908 0.83664,-1.65389 1.26903,-2.06736c1.7757,-1.70141 3.85875,-3.0738 6.18959,-4.07887l0.00047,0c2.80477,-1.20903 5.8135,-1.82139 8.94314,-1.82139c5.78628,0 11.1614,2.09504 15.13367,5.90072c2.02213,1.93584 2.63033,4.58187 1.6285,7.07792zm0,0" id="svg_45" stroke="null"/>
  </g>
  <g id="svg_87">
   <g id="svg_51" transform="matrix(0.12359570944728748,0,0,0.12359570944728748,0,0) ">
    <g id="svg_52">
     <path d="m4050.69948,1510.79432c-2.732,-2.696 -6.771,-3.596 -10.384,-2.302l-415.353,148.097c-14.43,-8.824 -32.733,-10.89 -49.52,-3.939c-27.865,11.543 -41.146,43.604 -29.604,71.471c27.219,65.708 66.518,124.525 116.809,174.816s109.107,89.591 174.816,116.809c6.824,2.826 13.897,4.164 20.861,4.164c21.475,-0.001 41.894,-12.726 50.609,-33.769c5.864,-14.158 5.31,-29.396 -0.299,-42.48l144.501,-422.514c1.242,-3.632 0.296,-7.656 -2.436,-10.353zm-362.847,144.604l44.02,-15.694c5.168,5.506 7.687,13.086 6.678,20.752c-0.89,6.75 -4.354,12.751 -9.755,16.896c-5.401,4.145 -12.089,5.936 -18.844,5.049c-6.749,-0.889 -12.749,-4.352 -16.894,-9.754c-3.819,-4.977 -5.636,-11.049 -5.205,-17.249zm202.603,323.088c-7.322,17.678 -27.664,26.103 -45.338,18.779c-128.04,-53.035 -227.763,-152.759 -280.8,-280.799c-3.547,-8.563 -3.547,-17.994 0,-26.558c3.547,-8.563 10.216,-15.232 18.779,-18.779s17.995,-3.547 26.558,0s15.232,10.216 18.779,18.779c22.701,54.807 55.481,103.865 97.429,145.813c41.948,41.948 91.006,74.727 145.813,97.429c17.678,7.321 26.103,27.66 18.78,45.336zm88.843,-303.248c-0.905,-0.022 -1.811,-0.074 -2.715,-0.192c-6.749,-0.889 -12.749,-4.353 -16.893,-9.754c-4.145,-5.401 -5.938,-12.094 -5.05,-18.843c1.835,-13.934 14.66,-23.776 28.599,-21.944c4.3,0.566 8.337,2.234 11.78,4.771l-15.721,45.962zm22.368,-65.406c-4.872,-2.653 -10.225,-4.42 -15.817,-5.156c-24.871,-3.283 -47.764,14.294 -51.038,39.163c-1.586,12.046 1.614,23.989 9.011,33.629c7.125,9.285 17.325,15.351 28.831,17.201l-19.876,58.119l-22.858,-17.54c-4.381,-3.36 -10.66,-2.536 -14.021,1.846c-3.362,4.382 -2.535,10.659 1.846,14.021l28.205,21.642l-51.694,151.155c-4.336,-3.77 -9.329,-6.924 -14.922,-9.241c-105.98,-43.899 -188.52,-126.439 -232.417,-232.417c-1.526,-3.686 -3.422,-7.108 -5.609,-10.26l26.779,-9.548c0.935,8.068 4.032,15.764 9.105,22.375c7.396,9.64 18.105,15.822 30.151,17.407c2.018,0.266 4.03,0.398 6.032,0.398c9.948,0 19.572,-3.25 27.597,-9.407c9.641,-7.398 15.822,-18.105 17.409,-30.153c1.423,-10.815 -1.101,-21.527 -6.768,-30.401l124.307,-44.322l4.711,11.374c1.596,3.851 5.319,6.176 9.243,6.176c1.275,0 2.571,-0.246 3.823,-0.764c5.102,-2.113 7.525,-7.964 5.412,-13.066l-4.326,-10.445l132.719,-47.322l-25.835,75.536z" id="svg_53"/>
    </g>
   </g>
   <g id="svg_54" transform="matrix(0.12359570944728748,0,0,0.12359570944728748,0,0) ">
    <g id="svg_55">
     <path d="m3649.67348,1776.18532c-0.03,-0.047 -0.113,-0.174 -0.145,-0.22c-3.062,-4.593 -9.259,-5.826 -13.854,-2.767c-4.587,3.054 -5.831,9.253 -2.795,13.848c1.915,2.942 5.119,4.547 8.392,4.547c1.852,0 3.725,-0.514 5.397,-1.589c4.646,-2.987 5.991,-9.174 3.005,-13.819z" id="svg_56"/>
    </g>
   </g>
   <g id="svg_57" transform="matrix(0.12359570944728748,0,0,0.12359570944728748,0,0) ">
    <g id="svg_58">
     <path d="m3634.46448,1751.34232c-9.745,-17.086 -18.505,-34.968 -26.036,-53.147c-2.113,-5.104 -7.966,-7.524 -13.065,-5.411c-5.103,2.113 -7.525,7.963 -5.411,13.065c7.85,18.951 16.982,37.591 27.14,55.401c1.845,3.234 5.221,5.048 8.695,5.048c1.68,0 3.383,-0.424 4.945,-1.315c4.797,-2.737 6.469,-8.844 3.732,-13.641z" id="svg_59"/>
    </g>
   </g>
   <g id="svg_60" transform="matrix(0.12359570944728748,0,0,0.12359570944728748,0,0) ">
    <g id="svg_61">
     <path d="m3854.60648,1635.89632c-1.982,-0.262 -3.995,-0.394 -5.983,-0.394c-22.717,0 -42.087,17.005 -45.055,39.555c-3.274,24.868 14.293,47.764 39.161,51.038c1.982,0.262 3.995,0.394 5.983,0.394c22.716,0 42.086,-17.005 45.055,-39.557c3.273,-24.867 -14.294,-47.762 -39.161,-51.036zm19.333,48.426c-1.664,12.637 -12.509,22.166 -25.227,22.166c-1.118,0 -2.253,-0.074 -3.372,-0.222c-13.935,-1.835 -23.777,-14.664 -21.943,-28.599c1.664,-12.636 12.508,-22.164 25.226,-22.164c1.118,0 2.253,0.074 3.372,0.222c13.934,1.836 23.778,14.664 21.944,28.597z" id="svg_62"/>
    </g>
   </g>
   <g id="svg_63" transform="matrix(0.12359570944728748,0,0,0.12359570944728748,0,0) ">
    <g id="svg_64">
     <path d="m3852.00448,1760.28332c-1.983,-0.262 -3.995,-0.394 -5.983,-0.394c-22.717,0 -42.087,17.005 -45.055,39.556c-1.587,12.047 1.613,23.989 9.01,33.63c7.396,9.64 18.104,15.822 30.151,17.409c1.981,0.261 3.993,0.392 5.98,0.392c22.717,0 42.088,-17.005 45.057,-39.557c3.275,-24.866 -14.293,-47.76 -39.16,-51.036zm19.333,48.427c-1.664,12.637 -12.51,22.166 -25.228,22.166c-1.117,0 -2.252,-0.075 -3.37,-0.222c-6.75,-0.89 -12.75,-4.354 -16.895,-9.755c-4.145,-5.401 -5.938,-12.093 -5.049,-18.844c1.664,-12.636 12.509,-22.165 25.226,-22.165c1.118,0 2.253,0.074 3.372,0.222c13.933,1.835 23.777,14.664 21.944,28.598z" id="svg_65"/>
    </g>
   </g>
   <g id="svg_66" transform="matrix(0.12359570944728748,0,0,0.12359570944728748,0,0) ">
    <g id="svg_67">
     <path d="m3786.04848,1718.85532l-30.736,-4.047c-5.473,-0.727 -10.499,3.133 -11.22,8.608c-0.722,5.476 3.133,10.499 8.608,11.22l30.736,4.047c0.443,0.059 0.883,0.087 1.318,0.087c4.941,0 9.239,-3.663 9.901,-8.695c0.723,-5.475 -3.131,-10.499 -8.607,-11.22z" id="svg_68"/>
    </g>
   </g>
   <g id="svg_69" transform="matrix(0.12359570944728748,0,0,0.12359570944728748,0,0) ">
    <g id="svg_70">
     <path d="m3770.46348,1792.65232l-2.714,-20.624c-0.721,-5.476 -5.743,-9.332 -11.219,-8.609c-5.476,0.721 -9.33,5.743 -8.609,11.219l2.715,20.624c0.662,5.033 4.959,8.696 9.901,8.696c0.435,0 0.875,-0.028 1.317,-0.087c5.476,-0.721 9.33,-5.743 8.609,-11.219z" id="svg_71"/>
    </g>
   </g>
   <g id="svg_72" transform="matrix(0.12359570944728748,0,0,0.12359570944728748,0,0) "/>
   <g id="svg_73" transform="matrix(0.12359570944728748,0,0,0.12359570944728748,0,0) "/>
   <g id="svg_74" transform="matrix(0.12359570944728748,0,0,0.12359570944728748,0,0) "/>
   <g id="svg_75" transform="matrix(0.12359570944728748,0,0,0.12359570944728748,0,0) "/>
   <g id="svg_76" transform="matrix(0.12359570944728748,0,0,0.12359570944728748,0,0) "/>
   <g id="svg_77" transform="matrix(0.12359570944728748,0,0,0.12359570944728748,0,0) "/>
   <g id="svg_78" transform="matrix(0.12359570944728748,0,0,0.12359570944728748,0,0) "/>
   <g id="svg_79" transform="matrix(0.12359570944728748,0,0,0.12359570944728748,0,0) "/>
   <g id="svg_80" transform="matrix(0.12359570944728748,0,0,0.12359570944728748,0,0) "/>
   <g id="svg_81" transform="matrix(0.12359570944728748,0,0,0.12359570944728748,0,0) "/>
   <g id="svg_82" transform="matrix(0.12359570944728748,0,0,0.12359570944728748,0,0) "/>
   <g id="svg_83" transform="matrix(0.12359570944728748,0,0,0.12359570944728748,0,0) "/>
   <g id="svg_84" transform="matrix(0.12359570944728748,0,0,0.12359570944728748,0,0) "/>
   <g id="svg_85" transform="matrix(0.12359570944728748,0,0,0.12359570944728748,0,0) "/>
   <g id="svg_86" transform="matrix(0.12359570944728748,0,0,0.12359570944728748,0,0) "/>
  </g>
  <g id="svg_164" stroke="null">
   <g id="svg_92" transform="matrix(0.11346887476975098,0,0,0.11346887476975098,21.169642582535744,13.79515565931797) " stroke="null">
    <g id="svg_93" stroke="null">
     <path d="m4201.11429,699.7834l-494.934,0c-4.71,0 -8.533,3.814 -8.533,8.533c0,51.755 42.112,93.867 93.867,93.867l324.267,0c51.754,0 93.866,-42.112 93.866,-93.867c0,-4.719 -3.814,-8.533 -8.533,-8.533zm-85.334,85.333l-324.266,0c-39.467,0 -72.073,-29.918 -76.331,-68.267l476.919,0c-4.258,38.35 -36.855,68.267 -76.322,68.267z" id="svg_94" stroke="null"/>
    </g>
   </g>
   <g id="svg_95" transform="matrix(0.11346887476975098,0,0,0.11346887476975098,21.169642582535744,13.79515565931797) " stroke="null">
    <g id="svg_96" stroke="null">
     <path d="m3953.65629,571.7834c-0.043,0 -0.077,0 -0.111,0c-33.63,0 -65.929,12.382 -90.931,34.876l11.409,12.681c21.871,-19.661 50.108,-30.49 79.531,-30.49c0.026,0 0.068,0 0.094,0c47.292,0 87.723,24.695 103.006,62.899l15.855,-6.332c-17.896,-44.732 -64.556,-73.634 -118.853,-73.634z" id="svg_97" stroke="null"/>
    </g>
   </g>
   <g id="svg_98" transform="matrix(0.11346887476975098,0,0,0.11346887476975098,21.169642582535744,13.79515565931797) " stroke="null">
    <g id="svg_99" stroke="null">
     <path d="m4018.87629,629.4174c-43.537,-35.951 -108.203,-29.781 -144.162,13.739l13.158,10.863c29.961,-36.267 83.857,-41.421 120.124,-11.452c5.888,4.873 11.093,10.505 15.471,16.725l13.978,-9.805c-5.257,-7.466 -11.504,-14.216 -18.569,-20.07z" id="svg_100" stroke="null"/>
    </g>
   </g>
   <g id="svg_101" transform="matrix(0.11346887476975098,0,0,0.11346887476975098,21.169642582535744,13.79515565931797) " stroke="null">
    <g id="svg_102" stroke="null">
     <path d="m4001.42529,659.5574c-26.897,-26.359 -70.195,-25.899 -96.546,0.973l12.194,11.947c19.763,-20.156 52.25,-20.489 72.405,-0.742c9.771,9.566 15.369,22.895 15.369,36.582l17.067,0c0,-18.245 -7.467,-36.02 -20.489,-48.76z" id="svg_103" stroke="null"/>
    </g>
   </g>
   <g id="svg_104" transform="matrix(0.11346887476975098,0,0,0.11346887476975098,21.169642582535744,13.79515565931797) " stroke="null">
    <g id="svg_105" stroke="null">
     <path d="m4047.88929,605.9164c-0.128,0 -0.247,0 -0.375,0l-8.533,0l0,17.067l8.567,0c48.444,0.188 89.813,37.632 93.867,86.042l16.998,-1.417c-4.77,-57.096 -53.299,-101.692 -110.524,-101.692z" id="svg_106" stroke="null"/>
    </g>
   </g>
   <g id="svg_107" transform="matrix(0.11346887476975098,0,0,0.11346887476975098,21.169642582535744,13.79515565931797) " stroke="null">
    <g id="svg_108" stroke="null">
     <path d="m4098.39829,659.6344c-15.292,-13.67 -35.004,-20.591 -55.475,-19.43c-20.48,1.135 -39.287,10.189 -52.966,25.472l12.715,11.383c10.641,-11.887 25.267,-18.935 41.199,-19.823c16.017,-0.828 31.249,4.48 43.153,15.113c10.726,9.6 17.63,22.75 19.439,37.043l16.939,-2.15c-2.331,-18.365 -11.214,-35.278 -25.004,-47.608z" id="svg_109" stroke="null"/>
    </g>
   </g>
   <g id="svg_110" transform="matrix(0.11346887476975098,0,0,0.11346887476975098,21.169642582535744,13.79515565931797) " stroke="null">
    <g id="svg_111" stroke="null">
     <path d="m4057.71129,675.4464c-22.793,-5.854 -46.071,7.97 -51.917,30.754l16.538,4.233c3.499,-13.67 17.476,-21.956 31.147,-18.449c9.054,2.313 16.137,9.387 18.449,18.449l16.538,-4.233c-3.875,-15.104 -15.651,-26.888 -30.755,-30.754z" id="svg_112" stroke="null"/>
    </g>
   </g>
   <g id="svg_113" transform="matrix(0.11346887476975098,0,0,0.11346887476975098,21.169642582535744,13.79515565931797) " stroke="null">
    <g id="svg_114" stroke="null">
     <path d="m3868.49329,606.1044c-29.534,-2.406 -58.24,6.81 -80.828,25.984c-22.596,19.174 -36.369,46.003 -38.784,75.529l17.007,1.399c2.039,-24.994 13.696,-47.693 32.811,-63.906c19.123,-16.222 43.409,-24.047 68.403,-21.982c13.867,1.126 27.554,5.436 39.586,12.442l8.593,-14.754c-14.225,-8.286 -30.404,-13.372 -46.788,-14.712z" id="svg_115" stroke="null"/>
    </g>
   </g>
   <g id="svg_116" transform="matrix(0.11346887476975098,0,0,0.11346887476975098,21.169642582535744,13.79515565931797) " stroke="null">
    <g id="svg_117" stroke="null">
     <path d="m3869.17629,640.4424c-41.975,-5.188 -80.444,24.798 -85.615,66.833l16.939,2.082c4.019,-32.691 33.886,-55.927 66.586,-51.985c27.247,3.362 48.623,24.738 51.977,51.985l16.956,-2.082c-4.32,-35.038 -31.806,-62.523 -66.843,-66.833z" id="svg_118" stroke="null"/>
    </g>
   </g>
   <g id="svg_119" transform="matrix(0.11346887476975098,0,0,0.11346887476975098,21.169642582535744,13.79515565931797) " stroke="null">
    <g id="svg_120" stroke="null">
     <path d="m3870.56629,675.6594c-11.017,-2.884 -22.519,-1.289 -32.35,4.454c-9.839,5.76 -16.845,15.01 -19.721,26.035l16.512,4.318c1.732,-6.613 5.939,-12.169 11.836,-15.616c5.897,-3.456 12.8,-4.403 19.413,-2.671c8.943,2.338 15.957,9.344 18.295,18.295l16.504,-4.326c-3.899,-14.915 -15.581,-26.598 -30.489,-30.489z" id="svg_121" stroke="null"/>
    </g>
   </g>
   <g id="svg_122" transform="matrix(0.11346887476975098,0,0,0.11346887476975098,21.169642582535744,13.79515565931797) " stroke="null">
    <g id="svg_123" stroke="null">
     <path d="m3953.64729,674.1834c-18.825,0 -34.133,15.309 -34.133,34.133l17.067,0c0,-9.412 7.654,-17.067 17.067,-17.067c9.412,0 17.067,7.654 17.067,17.067l17.067,0c-0.002,-18.824 -15.31,-34.133 -34.135,-34.133z" id="svg_124" stroke="null"/>
    </g>
   </g>
   <g id="svg_125" transform="matrix(0.11346887476975098,0,0,0.11346887476975098,21.169642582535744,13.79515565931797) " stroke="null">
    <g id="svg_126" stroke="null">
     <rect x="3782.980291" y="324.316399" width="68.267" height="17.067" id="svg_127" stroke="null"/>
    </g>
   </g>
   <g id="svg_128" transform="matrix(0.11346887476975098,0,0,0.11346887476975098,21.169642582535744,13.79515565931797) " stroke="null">
    <g id="svg_129" stroke="null">
     <rect x="3800.047291" y="358.450399" width="51.2" height="17.067" id="svg_130" stroke="null"/>
    </g>
   </g>
   <g id="svg_131" transform="matrix(0.11346887476975098,0,0,0.11346887476975098,21.169642582535744,13.79515565931797) " stroke="null">
    <g id="svg_132" stroke="null">
     <path d="m3764.19029,473.6844c-9.045,-15.812 -9.045,-35.447 0,-51.26c12.032,-21.035 12.032,-47.172 0,-68.207c-9.045,-15.812 -9.045,-35.447 0,-51.26c1.51,-2.645 1.502,-5.888 -0.026,-8.525c-1.527,-2.628 -4.343,-4.249 -7.381,-4.249l-25.003,0l0,17.067l11.947,0c-5.922,18.236 -4.045,38.494 5.649,55.433c9.045,15.812 9.045,35.447 0,51.26c-12.032,21.035 -12.032,47.172 0,68.207c9.045,15.812 9.045,35.447 0,51.26c-12.032,21.043 -12.032,47.172 -0.35,67.524c2.611,5.7 4.821,11.614 6.571,17.553l16.367,-4.821c-1.98,-6.724 -4.48,-13.389 -7.774,-20.514c-9.045,-15.804 -9.045,-35.456 0,-51.26c12.032,-21.036 12.032,-47.174 0,-68.208z" id="svg_133" stroke="null"/>
    </g>
   </g>
   <g id="svg_134" transform="matrix(0.11346887476975098,0,0,0.11346887476975098,21.169642582535744,13.79515565931797) " stroke="null">
    <g id="svg_135" stroke="null">
     <path d="m4209.63029,352.3914c-0.7,-24.969 -21.572,-44.527 -46.566,-44.032l-248.653,7.313l-13.014,-13.013c-8.055,-8.047 -18.764,-12.476 -30.139,-12.476c-0.017,0 -0.034,0 -0.043,0l-79.104,0c-3.063,0 -5.888,1.638 -7.407,4.292c-12.032,21.035 -12.032,47.172 0,68.207c9.045,15.812 9.045,35.448 0,51.26c-12.032,21.035 -12.032,47.172 0,68.207c9.045,15.812 9.045,35.447 0,51.26c-12.032,21.043 -12.032,47.172 0,68.207c1.169,2.048 2.193,4.173 3.072,6.366l15.838,-6.349c-1.161,-2.91 -2.543,-5.768 -4.096,-8.482c-9.045,-15.804 -9.045,-35.456 0,-51.26c12.032,-21.035 12.032,-47.172 0,-68.207c-9.045,-15.812 -9.045,-35.447 0,-51.26c2.338,-4.096 4.224,-8.371 5.649,-12.774l66.039,0c0.017,0 0.026,0 0.043,0c11.383,0 22.093,-4.437 30.148,-12.484l12.911,-12.911l247.381,14.541c0.887,0.051 2.125,0.034 2.645,0.077c24.969,0 45.295,-20.309 45.312,-45.286l-0.016,-1.196zm-45.303,29.414c-0.657,-0.145 -1.075,-0.017 -1.621,-0.043l-251.222,-14.762c-2.432,-0.179 -4.813,0.759 -6.537,2.483l-15.616,15.616c-4.83,4.821 -11.247,7.484 -18.091,7.484c-0.009,0 -0.017,0 -0.026,0l-62.805,0c0.811,-13.193 -2.15,-26.581 -8.892,-38.374c-8.235,-14.404 -8.969,-31.991 -2.193,-46.959l73.899,0c0.009,0 0.017,0 0.026,0c6.827,0 13.252,2.662 18.082,7.492l15.616,15.616c1.655,1.655 3.977,2.628 6.281,2.492l252.322,-7.433c15.932,-0.435 28.578,11.887 29.03,28.16c-0.017,15.573 -12.689,28.228 -28.253,28.228z" id="svg_136" stroke="null"/>
    </g>
   </g>
   <g id="svg_137" transform="matrix(0.11346887476975098,0,0,0.11346887476975098,21.169642582535744,13.79515565931797) " stroke="null">
    <g id="svg_138" stroke="null">
     <path d="m3833.64329,473.6844c-9.045,-15.812 -9.045,-35.447 -0.009,-51.251c3.413,-5.939 5.905,-12.331 7.415,-19.004l-16.648,-3.763c-1.135,5.009 -3.004,9.813 -5.572,14.285c-12.032,21.035 -12.032,47.172 0,68.207c9.045,15.812 9.045,35.456 -0.009,51.277c-11.136,19.558 -12.006,43.375 -2.33,63.693l15.403,-7.33c-7.287,-15.292 -6.622,-33.203 1.749,-47.906c12.033,-21.036 12.033,-47.173 0.001,-68.208z" id="svg_139" stroke="null"/>
    </g>
   </g>
   <g id="svg_140" transform="matrix(0.11346887476975098,0,0,0.11346887476975098,21.169642582535744,13.79515565931797) " stroke="null">
    <g id="svg_141" stroke="null">
     <rect x="3731.780291" y="324.316399" width="17.067" height="17.067" id="svg_142" stroke="null"/>
    </g>
   </g>
   <g id="svg_143" transform="matrix(0.11346887476975098,0,0,0.11346887476975098,21.169642582535744,13.79515565931797) " stroke="null">
    <g id="svg_144" stroke="null">
     <rect x="3731.780291" y="358.450399" width="25.6" height="17.067" id="svg_145" stroke="null"/>
    </g>
   </g>
   <g id="svg_146" transform="matrix(0.11346887476975098,0,0,0.11346887476975098,21.169642582535744,13.79515565931797) " stroke="null">
    <g id="svg_147" stroke="null">
     <rect x="3731.780291" y="392.583399" width="34.133" height="17.067" id="svg_148" stroke="null"/>
    </g>
   </g>
   <g id="svg_149" transform="matrix(0.11346887476975098,0,0,0.11346887476975098,21.169642582535744,13.79515565931797) " stroke="null"/>
   <g id="svg_150" transform="matrix(0.11346887476975098,0,0,0.11346887476975098,21.169642582535744,13.79515565931797) " stroke="null"/>
   <g id="svg_151" transform="matrix(0.11346887476975098,0,0,0.11346887476975098,21.169642582535744,13.79515565931797) " stroke="null"/>
   <g id="svg_152" transform="matrix(0.11346887476975098,0,0,0.11346887476975098,21.169642582535744,13.79515565931797) " stroke="null"/>
   <g id="svg_153" transform="matrix(0.11346887476975098,0,0,0.11346887476975098,21.169642582535744,13.79515565931797) " stroke="null"/>
   <g id="svg_154" transform="matrix(0.11346887476975098,0,0,0.11346887476975098,21.169642582535744,13.79515565931797) " stroke="null"/>
   <g id="svg_155" transform="matrix(0.11346887476975098,0,0,0.11346887476975098,21.169642582535744,13.79515565931797) " stroke="null"/>
   <g id="svg_156" transform="matrix(0.11346887476975098,0,0,0.11346887476975098,21.169642582535744,13.79515565931797) " stroke="null"/>
   <g id="svg_157" transform="matrix(0.11346887476975098,0,0,0.11346887476975098,21.169642582535744,13.79515565931797) " stroke="null"/>
   <g id="svg_158" transform="matrix(0.11346887476975098,0,0,0.11346887476975098,21.169642582535744,13.79515565931797) " stroke="null"/>
   <g id="svg_159" transform="matrix(0.11346887476975098,0,0,0.11346887476975098,21.169642582535744,13.79515565931797) " stroke="null"/>
   <g id="svg_160" transform="matrix(0.11346887476975098,0,0,0.11346887476975098,21.169642582535744,13.79515565931797) " stroke="null"/>
   <g id="svg_161" transform="matrix(0.11346887476975098,0,0,0.11346887476975098,21.169642582535744,13.79515565931797) " stroke="null"/>
   <g id="svg_162" transform="matrix(0.11346887476975098,0,0,0.11346887476975098,21.169642582535744,13.79515565931797) " stroke="null"/>
   <g id="svg_163" transform="matrix(0.11346887476975098,0,0,0.11346887476975098,21.169642582535744,13.79515565931797) " stroke="null"/>
  </g>
  <g id="svg_173" stroke="null">
   <path d="m225.55292,205.58423c-0.4938,0 -0.89443,0.40062 -0.89443,0.89442l0,1.48465c0,0.49426 0.40063,0.89442 0.89443,0.89442c0.49426,0 0.89442,-0.40016 0.89442,-0.89442l0,-1.48465c0,-0.4938 -0.40016,-0.89442 -0.89442,-0.89442zm0,0" id="svg_168" stroke="null"/>
   <path d="m214.245,205.58423c-0.4938,0 -0.89442,0.40062 -0.89442,0.89442l0,1.48465c0,0.49426 0.40062,0.89442 0.89442,0.89442c0.49426,0 0.89442,-0.40016 0.89442,-0.89442l0,-1.48465c0.00046,-0.4938 -0.40016,-0.89442 -0.89442,-0.89442zm0,0" id="svg_169" stroke="null"/>
   <path d="m221.74883,206.81359c-0.1514,-0.09969 -0.82082,-0.3573 -1.23869,0.25622c-0.20078,0.29441 -0.49239,0.32981 -0.61118,0.32981c-0.11833,0 -0.41554,-0.03214 -0.61073,-0.32981c-0.27158,-0.41274 -0.82594,-0.52781 -1.23868,-0.25622c-0.4132,0.27112 -0.5278,0.82548 -0.25668,1.23822c0.46771,0.71181 1.25499,1.13666 2.10609,1.13666c0.85156,0 1.63884,-0.42485 2.10608,-1.13666c0.27159,-0.41274 0.15652,-0.9671 -0.25621,-1.23822zm0,0" id="svg_170" stroke="null"/>
   <path d="m215.78601,197.45896c0.43603,0.23106 0.97781,0.06522 1.20934,-0.37128s0.06521,-0.97781 -0.37128,-1.20933c-0.66057,-0.34985 -1.05467,-0.78681 -1.05467,-1.16834c0,-0.38199 0.3941,-0.81849 1.05467,-1.16881c0.84737,-0.44954 2.04133,-0.70715 3.27489,-0.70715c1.23402,0 2.42751,0.25761 3.27535,0.70715c0.6601,0.35032 1.05468,0.78682 1.05468,1.16881c0,0.38153 -0.39458,0.81849 -1.05468,1.16834c-0.84784,0.44954 -2.04133,0.70762 -3.27535,0.70762c-0.4938,0 -0.89443,0.40016 -0.89443,0.89442c0,0.49379 0.40063,0.89442 0.89443,0.89442c3.48824,0 6.11887,-1.57595 6.11887,-3.6648c0,-2.08931 -2.63063,-3.6648 -6.11887,-3.6648s-6.11888,1.57548 -6.11888,3.6648c0,1.08682 0.71228,2.06276 2.00593,2.74895zm0,0" id="svg_171" stroke="null"/>
   <path d="m254.40315,183.96344c-4.16232,-2.82861 -9.02248,-4.32398 -14.05547,-4.32398c-1.28573,0 -2.55982,0.0983 -3.81387,0.29069l5.18252,-3.99555c1.32487,-1.02113 1.59878,-2.88591 0.62424,-4.24478c-0.97502,-1.35934 -2.82908,-1.69754 -4.22149,-0.77051l-3.05408,2.03481l2.10842,-3.00377c0.96103,-1.36865 0.66802,-3.23063 -0.66709,-4.23825c-1.33465,-1.00809 -3.20595,-0.77936 -4.25922,0.51988l-15.153,18.69249l-3.92009,2.61106c-2.56494,0.74256 -4.83034,2.75687 -5.52306,3.67924l-8.67077,5.77555c-1.07377,0.71507 -1.79257,1.80794 -2.02409,3.0769c-0.23153,1.26943 0.05497,2.54538 0.80684,3.59353c0.75187,1.04862 1.95096,1.92347 3.81713,1.9668c-0.03726,1.49443 0.63914,2.93063 1.8755,3.86604c1.83309,1.38729 3.62427,0.90328 4.01325,0.80312c0.6997,1.0216 1.7376,1.95003 3.07923,2.73498c2.51184,1.46927 5.83285,2.27844 9.35091,2.27844s6.83906,-0.80917 9.35137,-2.27844c1.67657,-0.98061 2.87845,-2.18575 3.53902,-3.51713c0.48821,0.17329 2.47224,0.84877 4.22568,-0.61259c0.18447,-0.15373 0.44441,-0.14162 0.6382,0c0.78682,0.57439 1.71851,0.87812 2.69445,0.87812c0.97595,0 1.90764,-0.30373 2.69398,-0.87812c0.19426,-0.14162 0.44442,-0.14115 0.63868,0c0.78634,0.57439 1.71803,0.87812 2.69444,0.87812c1.80376,0 3.44399,-1.06446 4.17956,-2.71215c0.08525,-0.19146 0.26553,-0.31538 0.47004,-0.32283c1.30483,-0.04891 2.52907,-0.65358 3.35921,-1.65981c0.82315,-0.99783 1.18604,-2.30453 0.99504,-3.58514c-0.02981,-0.20078 0.05451,-0.39783 0.22547,-0.52687c1.14458,-0.86554 1.80748,-2.18388 1.81773,-3.61682c0.00605,-0.8646 -0.24178,-1.70639 -0.70762,-2.43637c2.2845,-3.65734 1.28573,-8.51238 -2.31106,-10.95667l0,0.00001zm-13.74801,-2.53234c0.78961,1.78046 1.11197,3.74307 0.93076,5.7108c-0.06382,0.69224 -0.67874,1.20281 -1.37098,1.13992c-0.01258,-0.0014 -1.23449,-0.16864 -1.13899,-1.3831c0.15046,-1.9053 -0.27532,-3.75284 -1.20561,-5.33858c0.81895,-0.08711 2.68233,-0.13044 2.78482,-0.12904zm-4.73158,0.42019c1.02485,1.39474 1.5098,3.11697 1.36911,4.90721c-0.16491,2.08885 1.098,3.31729 3.04011,3.31729c1.55638,0 2.88917,-1.19024 3.03451,-2.76992c0.18168,-1.96959 -0.075,-3.93639 -0.74069,-5.76576c1.31368,0.12811 2.6078,0.36755 3.87117,0.71414c0.57625,1.52098 0.61817,3.21526 0.10994,4.81777c-0.63355,1.99707 0.74116,3.48266 1.93791,3.84322c2.15966,0.65172 3.43095,-0.65544 3.85487,-1.93372c0.09829,-0.29582 0.1868,-0.59722 0.26366,-0.89629c0.12252,-0.47842 -0.16584,-0.96616 -0.64426,-1.08868c-0.47889,-0.12252 -0.96616,0.16584 -1.08868,0.64426c-0.06662,0.25948 -0.14348,0.52082 -0.22826,0.7775c-0.21895,0.65964 -0.93449,1.01834 -1.59412,0.79939c-0.01165,-0.00373 -1.16415,-0.44395 -0.79567,-1.60484c0.48914,-1.54241 0.56461,-3.15703 0.23898,-4.68966c1.69614,0.64147 3.32148,1.48372 4.84572,2.51929c2.86821,1.94956 3.61589,5.86872 1.66633,8.73739c-1.1744,1.72828 -5.06979,4.07242 -8.7495,1.65841c-3.68903,-2.4196 -8.37775,-2.41634 -11.94566,0.00838c-0.31538,0.21429 -0.64613,0.39737 -0.98945,0.5497l0,-1.68636c0,-1.02812 -0.29442,-2.02083 -0.85762,-2.94367c1.60856,-0.34985 2.65764,-1.92487 2.34739,-3.55067c-0.36429,-1.91043 -1.13713,-3.70487 -2.25562,-5.26358c-0.00047,0 2.34739,-0.91446 3.30982,-1.10079l0.00001,-0.00001zm-5.14759,1.63931c1.17579,1.45903 1.98031,3.19523 2.33621,5.06047c0.12997,0.68247 -0.31957,1.34397 -1.00203,1.47441c-0.01258,0.00232 -1.23309,0.17981 -1.47719,-1.01368c-0.33075,-1.61788 -1.08775,-3.11278 -2.16665,-4.31326c0.74954,-0.44721 1.52098,-0.85017 2.30966,-1.20794zm-3.82505,2.20624c0.73324,0.75467 1.29924,1.67472 1.65468,2.68467c-0.9289,-0.47749 -1.9491,-0.873 -3.03824,-1.17766c0.37361,-0.57252 0.83945,-1.08122 1.38356,-1.50701zm6.6858,-18.33844c0.44302,-0.54644 1.2303,-0.64287 1.79164,-0.21895c0.56181,0.42392 0.68526,1.207 0.28091,1.78279l-4.74976,6.76639l-8.85944,5.90133l11.53665,-14.23156zm5.47414,5.04975c0.58557,-0.38991 1.36586,-0.24783 1.7758,0.32423c0.40995,0.57159 0.29488,1.35608 -0.26273,1.78559l-8.39592,6.47291c-2.08606,0.71647 -4.08034,1.71151 -5.9358,2.97209c-1.07517,0.73091 -1.94676,1.69614 -2.55795,2.82349c-2.38979,-0.41647 -5.18532,-0.3014 -5.84542,-0.24224l21.22203,-14.13607l-0.00001,0zm-27.66,17.86841c2.24258,-1.31135 5.24262,-2.03341 8.4481,-2.03341c3.20548,0 6.20552,0.72206 8.44809,2.03341c2.09165,1.22331 3.24322,2.79787 3.24322,4.43298c0,1.63558 -1.15204,3.21014 -3.24322,4.43345c-2.24257,1.31135 -5.24261,2.03341 -8.44809,2.03341c-3.20548,0 -6.20552,-0.72206 -8.4481,-2.03341c-2.09118,-1.22331 -3.24321,-2.79787 -3.24321,-4.43345c0,-1.63511 1.15203,-3.20967 3.24321,-4.43298zm-12.23448,12.34163c-1.24427,-1.91089 0.08944,-3.69554 0.7556,-4.13903l6.47524,-4.31372c-0.01817,0.18028 -0.02841,6.72167 -0.02841,6.72167l-3.03918,2.3432c-0.63401,0.48867 -2.91805,1.29878 -4.16325,-0.61212zm4.19167,2.64787c0.375,-0.15699 3.01075,-2.12006 3.01075,-2.12006l0,3.90843c0,0.53759 0.08106,1.06539 0.23852,1.57875c-2.66324,0.14674 -3.49384,-1.61974 -3.24927,-3.36713l0,0.00001zm24.939,6.22135c-2.24257,1.31136 -5.24261,2.03388 -8.44809,2.03388c-3.20548,0 -6.20552,-0.72252 -8.4481,-2.03388c-2.09118,-1.2233 -3.24321,-2.79786 -3.24321,-4.43298l0,-8.19001c0.62656,0.66522 1.41011,1.27827 2.3404,1.82238c2.51184,1.46927 5.83285,2.27845 9.35091,2.27845s6.83907,-0.80918 9.35137,-2.27845c0.92982,-0.54364 1.71337,-1.15669 2.33994,-1.82238l0,8.19001c0,1.63512 -1.15157,3.20968 -3.24322,4.43298zm26.17816,-11.941c-0.6615,0.55902 -1.04163,1.37145 -0.91586,2.21742c0.116,0.77983 -0.10481,1.57549 -0.60559,2.18295c-0.50545,0.61259 -1.25126,0.98107 -2.046,1.01042c-0.89116,0.03354 -1.67145,0.56274 -2.03713,1.3817c-0.44768,1.00389 -1.44738,1.65235 -2.54585,1.65235c-0.59441,0 -1.16135,-0.18448 -1.6393,-0.53386c-0.82175,-0.60001 -1.92627,-0.60001 -2.74849,0c-0.47842,0.34938 -1.04535,0.53386 -1.63931,0.53386c-0.59441,0 -1.16135,-0.18448 -1.63931,-0.53386c-0.82221,-0.60001 -1.9067,-0.57252 -2.74848,0c-1.14784,0.78075 -2.31944,0.47143 -2.63482,0.35078c0.03541,-0.24876 0.05404,-9.49531 0.05404,-9.49531c0.70436,-0.23386 1.37284,-0.56414 1.99521,-0.98666c2.96743,-2.01711 6.8768,-2.01385 9.95883,0.00792c1.52658,1.00156 3.01915,1.33278 4.32584,1.33278c3.42769,0 4.98175,-1.53636 5.80256,-2.27239c0.11414,0.30326 0.73557,1.73853 -0.93634,3.1519zm0,0" id="svg_172" stroke="null"/>
  </g>
  <g id="svg_186" stroke="null">
   <path d="m303.20974,311.04636c0.77977,-2.59589 2.10566,-4.13069 3.40589,-5.62609c1.66034,-1.90958 3.22904,-3.71286 3.22904,-7.27819c0,-2.52624 -2.05526,-4.5815 -4.5815,-4.5815s-4.58151,2.05526 -4.58151,4.5815s2.05527,4.58151 4.58151,4.58151l0,-1.8326c-1.51556,0 -2.74891,-1.23334 -2.74891,-2.74891s1.23335,-2.7489 2.74891,-2.7489s2.7489,1.23334 2.7489,2.7489c0,2.87994 -1.22693,4.29013 -2.77914,6.076c-1.32497,1.52289 -2.85703,3.29868 -3.76325,6.29774c-0.88698,-0.24649 -1.82252,-0.47282 -2.79655,-0.6799c-0.59926,-4.92512 -2.66094,-7.313 -4.37443,-9.28305c-1.55313,-1.78587 -2.78005,-3.19606 -2.78005,-6.07599c0,-1.51556 1.23334,-2.74891 2.7489,-2.74891s2.7489,1.23335 2.7489,2.74891s-1.23334,2.7489 -2.7489,2.7489l0,1.8326c2.52624,0 4.58151,-2.05526 4.58151,-4.5815s-2.05527,-4.58151 -4.58151,-4.58151s-4.58151,2.05526 -4.58151,4.58151c0,3.56533 1.56871,5.36861 3.22905,7.27818c1.61544,1.85734 3.27211,3.77058 3.86771,7.71251c-2.81213,-0.50122 -5.8625,-0.85125 -8.93028,-1.04733l0,-10.4944l0,-0.70006l0,-0.9163l-32.06963,0c-1.51556,0 -2.7489,1.23334 -2.7489,2.74891s1.23334,2.7489 2.7489,2.7489l16.86728,0c0.60201,1.00793 1.42301,1.82985 2.37505,2.44561l0,4.16825c-11.07991,0.70464 -21.99123,3.4288 -21.99123,8.04696c0,11.23752 7.01612,20.86235 16.89476,24.74014l-1.31764,0c-1.51556,0 -2.7489,1.23334 -2.7489,2.7489s1.23334,2.74891 2.7489,2.74891l25.65644,0c1.51556,0 2.74891,-1.23335 2.74891,-2.74891s-1.23335,-2.7489 -2.74891,-2.7489l-1.31764,0c9.87865,-3.87779 16.89477,-13.50262 16.89477,-24.74014c0,-2.27059 -2.63895,-4.08212 -6.63494,-5.42175zm-29.19703,-10.56496l-0.25381,-0.50671l-17.97601,0c-0.50579,0 -0.9163,-0.41051 -0.9163,-0.9163s0.41051,-0.91631 0.9163,-0.91631l30.23337,0c-0.11362,3.05129 -2.63162,5.49781 -5.70948,5.49781l-1.18386,0c-2.17804,0 -4.13618,-1.21043 -5.11021,-3.15849zm5.11021,4.99109l1.18386,0c2.28343,0 4.32953,-1.0235 5.71406,-2.6307l0,15.45892c0,0.5058 -0.4105,0.91631 -0.9163,0.91631s-0.9163,-0.41051 -0.9163,-0.91631l0,-8.24671c0,-1.51556 -1.23334,-2.7489 -2.74891,-2.7489s-2.7489,1.23334 -2.7489,2.7489l0,3.66521c0,0.5058 -0.4105,0.9163 -0.9163,0.9163s-0.9163,-0.4105 -0.9163,-0.9163l0,-8.60407c0.72113,0.22541 1.47982,0.35736 2.26509,0.35736l0,-0.00001zm28.44291,15.65501c-2.17438,2.6527 -11.92932,5.41993 -26.1265,5.41993c-14.199,0 -23.95395,-2.76723 -26.1265,-5.41993c-0.0898,-0.47006 -0.16493,-0.94562 -0.22816,-1.42485c4.49538,3.27487 15.6825,5.01217 26.35466,5.01217s21.85929,-1.7373 26.35466,-5.01216c-0.06322,0.47922 -0.13836,0.95478 -0.22815,1.42484l-0.00001,0zm-13.29828,21.91335c0.5058,0 0.9163,0.4105 0.9163,0.9163s-0.4105,0.9163 -0.9163,0.9163l-25.65644,0c-0.50579,0 -0.9163,-0.4105 -0.9163,-0.9163s0.41051,-0.9163 0.9163,-0.9163l10.99562,0l3.66521,0l10.99561,0zm-10.99561,-1.8326l-3.66521,0c-11.01761,0 -20.37213,-7.24062 -23.56544,-17.21181c4.63282,2.65453 14.26956,4.38359 25.39804,4.38359s20.76522,-1.72906 25.39804,-4.3845c-3.19331,9.97211 -12.54783,17.21272 -23.56544,17.21272l0.00001,0zm-1.83261,-18.32603c-16.4641,0 -26.57274,-3.73576 -26.57274,-6.41411c0,-2.40071 7.68869,-5.39976 20.15863,-6.20519l0,3.45629c0,1.51556 1.23335,2.7489 2.74891,2.7489s2.7489,-1.23334 2.7489,-2.7489l0,-3.66521c0,-0.5058 0.4105,-0.9163 0.9163,-0.9163s0.9163,0.4105 0.9163,0.9163l0,8.24671c0,1.51556 1.23334,2.74891 2.74891,2.74891s2.7489,-1.23335 2.7489,-2.74891l0,-8.03596c3.42055,0.22083 6.48008,0.60384 9.11903,1.09773c0.02566,0.45907 0.04398,0.93279 0.04398,1.44043l0,1.8326l1.83261,0l0,-1.8326c0,-0.36744 -0.011,-0.71747 -0.02383,-1.06291c0.78252,0.17501 1.52748,0.35644 2.21745,0.54886c-0.22541,1.21135 -0.36102,2.58489 -0.36102,4.17925l1.8326,0c0,-1.39094 0.10538,-2.58305 0.28405,-3.63588c3.35092,1.13713 5.21376,2.45752 5.21376,3.63588c0,2.67835 -10.10864,6.41411 -26.57274,6.41411z" id="svg_178" stroke="null"/>
   <path d="m300.95747,327.91913c-0.38851,0.59651 -0.81001,1.17836 -1.25167,1.72998l1.42851,1.14721c0.48015,-0.59743 0.93738,-1.22968 1.35888,-1.87659l-1.53572,-1.0006z" id="svg_179" stroke="null"/>
   <path d="m289.35892,336.6469l0.52963,1.7538c3.5974,-1.08765 6.90983,-3.07511 9.58084,-5.74887l-1.29565,-1.29565c-2.45935,2.4621 -5.50697,4.29104 -8.81482,5.29072z" id="svg_180" stroke="null"/>
   <path d="m266.40832,335.18173c0.51863,0.36744 1.05833,0.71655 1.60353,1.03817l0.92913,-1.58062c-0.50122,-0.29413 -0.99602,-0.61484 -1.4725,-0.95203l-1.06016,1.49448z" id="svg_181" stroke="null"/>
   <path d="m263.4899,332.73154c0.44533,0.44075 0.91997,0.87324 1.40836,1.28466l1.17928,-1.40286c-0.45082,-0.37935 -0.8879,-0.77794 -1.29932,-1.18478l-1.28832,1.30299l0,-0.00001z" id="svg_182" stroke="null"/>
   <path d="m262.49755,328.76121l-1.48532,1.07207c0.37201,0.51588 0.76877,1.02076 1.17928,1.50091l1.39277,-1.19211c-0.37751,-0.44166 -0.74312,-0.90622 -1.08673,-1.38087z" id="svg_183" stroke="null"/>
   <path d="m267.69481,317.38441c0,-1.51556 -1.23334,-2.7489 -2.7489,-2.7489l-4.58151,0l0,1.8326l4.58151,0c0.5058,0 0.9163,0.41051 0.9163,0.9163c0,1.51556 1.23334,2.74891 2.7489,2.74891l4.58151,0l0,-1.83261l-4.58151,0c-0.5058,0 -0.9163,-0.4105 -0.9163,-0.9163z" id="svg_184" stroke="null"/>
   <path d="m293.35125,315.55181c-2.05526,0 -3.66521,1.20677 -3.66521,2.7489s1.60995,2.74891 3.66521,2.74891s3.66521,-1.20677 3.66521,-2.74891s-1.60995,-2.7489 -3.66521,-2.7489zm0,3.66521c-1.1188,0 -1.8326,-0.54245 -1.8326,-0.9163s0.7138,-0.91631 1.8326,-0.91631s1.8326,0.54245 1.8326,0.91631s-0.7138,0.9163 -1.8326,0.9163z" id="svg_185" stroke="null"/>
  </g>
  <g id="svg_192" stroke="null">
   <path d="m103.31419,194.58489c-0.75097,-0.34024 -1.63419,-0.00699 -1.97385,0.7434s-0.00699,1.63419 0.7434,1.97384c7.49397,3.39306 11.7918,7.43688 11.7918,11.09444c0,8.75296 -11.56808,10.92664 -16.54115,11.45506c-7.52776,0.79991 -12.72396,3.34645 -17.30902,5.59295c-4.7843,2.34438 -8.91667,4.36891 -14.92036,4.36891c-11.92463,0 -21.62607,-8.91668 -21.62607,-19.87711c0,-5.43798 2.0222,-9.79757 6.01067,-12.95817c9.50977,-7.53534 27.56101,-6.76397 40.12942,-3.81311c0.80166,0.18818 1.60448,-0.30936 1.79324,-1.11102c0.18818,-0.80224 -0.30936,-1.60506 -1.11101,-1.79324c-7.8214,-1.83577 -16.05876,-2.55935 -23.1956,-2.03618c-8.19717,0.60008 -14.92968,2.81861 -19.46813,6.41558c-4.73886,3.75485 -7.1415,8.90153 -7.1415,15.29614l0,8.9493c0,12.60511 11.03967,22.86002 24.60898,22.86002c6.69523,0 11.32806,-2.27039 16.23296,-4.67361c4.57632,-2.24242 9.3076,-4.56117 16.31161,-5.30515c5.56731,-0.59134 10.23917,-2.07754 13.50988,-4.29666c3.72864,-2.52965 5.69899,-6.03049 5.69899,-10.12499l0,-8.94872c0,-4.95209 -4.80994,-9.857 -13.54426,-13.81168zm10.56135,22.7604c0,8.75296 -11.56808,10.92722 -16.54115,11.45564c-7.52776,0.79933 -12.72396,3.34587 -17.30902,5.59237c-4.7843,2.34438 -8.91667,4.36949 -14.92036,4.36949c-11.12822,0 -20.31872,-7.76604 -21.49732,-17.71101c4.21161,7.00051 12.26837,11.74462 21.49732,11.74462c6.69523,0 11.32806,-2.26981 16.23296,-4.67361c4.57573,-2.24184 9.3076,-4.56059 16.31102,-5.30457c5.5679,-0.59192 10.23976,-2.07755 13.51047,-4.29667c1.04519,-0.70902 1.95171,-1.49436 2.71608,-2.34787l0,1.17161zm0,0" id="svg_187" stroke="null"/>
   <path d="m63.31877,226.7496c0.59483,0.0536 1.19607,0.08098 1.78624,0.08098c3.19556,0 6.04563,-0.64144 9.52958,-2.14455c1.55262,-0.66998 3.0802,-1.41746 4.55767,-2.13988c1.5334,-0.74981 3.11807,-1.52583 4.70274,-2.19815c4.36774,-1.85616 8.66091,-2.98815 13.1242,-3.46238c1.79849,-0.1911 11.29485,-2.15096 13.01468,-6.85312c0.44977,-1.2287 0.55464,-3.14312 -1.49728,-5.2865c-1.66157,-1.73614 -3.41344,-2.61936 -5.26727,-3.55443c-0.18585,-0.0938 -0.37461,-0.18877 -0.56629,-0.28664c-6.08525,-3.09535 -14.01151,-5.35292 -22.31937,-6.35616c-3.24274,-0.3915 -9.66648,-0.91177 -16.25684,0.00175c-7.02964,0.9741 -12.05514,3.29227 -14.93784,6.88982c-1.83519,2.28961 -2.72714,5.06861 -2.72714,8.49604c0,3.80029 1.33298,7.36113 3.85389,10.29685c0.53657,0.62455 1.47863,0.69679 2.10318,0.15963c0.62513,-0.53657 0.69621,-1.47863 0.15963,-2.10318c-2.05016,-2.38749 -3.1338,-5.27543 -3.1338,-8.3533c0,-2.72249 0.67757,-4.8915 2.07172,-6.63115c2.38983,-2.98232 6.77039,-4.93403 13.01934,-5.80035c6.49074,-0.89953 12.99488,-0.29596 15.48956,0.00524c7.97054,0.96246 15.54316,3.11225 21.32488,6.05321c0.19517,0.09962 0.38684,0.19633 0.5756,0.2913c1.75887,0.88729 3.14837,1.58758 4.45572,2.95377c1.19782,1.25142 0.94614,1.94006 0.85118,2.19931c-0.88148,2.40963 -7.4095,4.57981 -10.52873,4.91131c-4.761,0.50628 -9.33207,1.7111 -13.97539,3.68319c-1.65749,0.70378 -3.27886,1.49728 -4.84722,2.26398c-1.44601,0.70786 -2.94154,1.43902 -4.42833,2.08105c-3.08778,1.3324 -5.58422,1.90044 -8.34807,1.90044c-0.50103,0 -1.01139,-0.02331 -1.51708,-0.06875c-0.82089,-0.0769 -1.54564,0.53016 -1.62021,1.35046c-0.07399,0.8203 0.53075,1.54564 1.35105,1.62021zm0,0" id="svg_188" stroke="null"/>
   <path d="m65.03102,218.32347c3.88885,0 6.93526,-2.09619 6.93526,-4.77265s-3.04641,-4.77265 -6.93526,-4.77265c-3.88943,0 -6.93525,2.09619 -6.93525,4.77265s3.04582,4.77265 6.93525,4.77265zm0,-6.56239c2.37584,0 3.95236,1.07722 3.95236,1.78974s-1.57652,1.78974 -3.95236,1.78974c-2.37642,0 -3.95235,-1.07722 -3.95235,-1.78974s1.57593,-1.78974 3.95235,-1.78974zm0,0" id="svg_189" stroke="null"/>
   <path d="m57.46423,222.04803l-0.00117,-0.00059c-0.75738,-0.3245 -1.63361,0.0268 -1.95753,0.7836c-0.32451,0.75738 0.02622,1.63419 0.7836,1.9587c0.19167,0.08214 0.39092,0.12118 0.58667,0.12118c0.57852,0 1.12908,-0.33907 1.37144,-0.9042c0.32451,-0.75737 -0.02563,-1.63419 -0.78301,-1.95869zm0,0" id="svg_190" stroke="null"/>
   <path d="m96.02296,194.95543c0.13691,0.03903 0.27499,0.05767 0.41073,0.05767c0.64902,0 1.24618,-0.42704 1.4332,-1.08188c0.22663,-0.79234 -0.23246,-1.61788 -1.02421,-1.84393l-0.00117,-0.00058c-0.79233,-0.22547 -1.61671,0.23304 -1.84334,1.02479c-0.22605,0.79175 0.23304,1.61729 1.02479,1.84393zm0,0" id="svg_191" stroke="null"/>
  </g>
  <g id="svg_229">
   <g id="svg_195" transform="matrix(0.12359570944728748,0,0,0.12359570944728748,0,0) ">
    <g id="svg_194">
     <path d="m967.6423,454.71951c-2.732,-2.696 -6.771,-3.596 -10.384,-2.302l-415.353,148.097c-14.43,-8.824 -32.733,-10.89 -49.52,-3.939c-27.865,11.543 -41.146,43.604 -29.604,71.471c27.219,65.708 66.518,124.525 116.809,174.816s109.107,89.591 174.816,116.809c6.824,2.826 13.897,4.164 20.861,4.164c21.475,-0.001 41.894,-12.726 50.609,-33.769c5.864,-14.158 5.31,-29.396 -0.299,-42.48l144.501,-422.514c1.242,-3.632 0.296,-7.656 -2.436,-10.353zm-362.847,144.604l44.02,-15.694c5.168,5.506 7.687,13.086 6.678,20.752c-0.89,6.75 -4.354,12.751 -9.755,16.896c-5.401,4.145 -12.089,5.936 -18.844,5.049c-6.749,-0.889 -12.749,-4.352 -16.894,-9.754c-3.819,-4.977 -5.636,-11.049 -5.205,-17.249zm202.603,323.088c-7.322,17.678 -27.664,26.103 -45.338,18.779c-128.04,-53.035 -227.763,-152.759 -280.8,-280.799c-3.547,-8.563 -3.547,-17.994 0,-26.558c3.547,-8.563 10.216,-15.232 18.779,-18.779s17.995,-3.547 26.558,0s15.232,10.216 18.779,18.779c22.701,54.807 55.481,103.865 97.429,145.813c41.948,41.948 91.006,74.727 145.813,97.429c17.678,7.321 26.103,27.66 18.78,45.336zm88.843,-303.248c-0.905,-0.022 -1.811,-0.074 -2.715,-0.192c-6.749,-0.889 -12.749,-4.353 -16.893,-9.754c-4.145,-5.401 -5.938,-12.094 -5.05,-18.843c1.835,-13.934 14.66,-23.776 28.599,-21.944c4.3,0.566 8.337,2.234 11.78,4.771l-15.721,45.962zm22.368,-65.406c-4.872,-2.653 -10.225,-4.42 -15.817,-5.156c-24.871,-3.283 -47.764,14.294 -51.038,39.163c-1.586,12.046 1.614,23.989 9.011,33.629c7.125,9.285 17.325,15.351 28.831,17.201l-19.876,58.119l-22.858,-17.54c-4.381,-3.36 -10.66,-2.536 -14.021,1.846c-3.362,4.382 -2.535,10.659 1.846,14.021l28.205,21.642l-51.694,151.155c-4.336,-3.77 -9.329,-6.924 -14.922,-9.241c-105.98,-43.899 -188.52,-126.439 -232.417,-232.417c-1.526,-3.686 -3.422,-7.108 -5.609,-10.26l26.779,-9.548c0.935,8.068 4.032,15.764 9.105,22.375c7.396,9.64 18.105,15.822 30.151,17.407c2.018,0.266 4.03,0.398 6.032,0.398c9.948,0 19.572,-3.25 27.597,-9.407c9.641,-7.398 15.822,-18.105 17.409,-30.153c1.423,-10.815 -1.101,-21.527 -6.768,-30.401l124.307,-44.322l4.711,11.374c1.596,3.851 5.319,6.176 9.243,6.176c1.275,0 2.571,-0.246 3.823,-0.764c5.102,-2.113 7.525,-7.964 5.412,-13.066l-4.326,-10.445l132.719,-47.322l-25.835,75.536z" id="svg_193"/>
    </g>
   </g>
   <g id="svg_198" transform="matrix(0.12359570944728748,0,0,0.12359570944728748,0,0) ">
    <g id="svg_197">
     <path d="m566.6163,720.11051c-0.03,-0.047 -0.113,-0.174 -0.145,-0.22c-3.062,-4.593 -9.259,-5.826 -13.854,-2.767c-4.587,3.054 -5.831,9.253 -2.795,13.848c1.915,2.942 5.119,4.547 8.392,4.547c1.852,0 3.725,-0.514 5.397,-1.589c4.646,-2.987 5.991,-9.174 3.005,-13.819z" id="svg_196"/>
    </g>
   </g>
   <g id="svg_201" transform="matrix(0.12359570944728748,0,0,0.12359570944728748,0,0) ">
    <g id="svg_200">
     <path d="m551.4073,695.26751c-9.745,-17.086 -18.505,-34.968 -26.036,-53.147c-2.113,-5.104 -7.966,-7.524 -13.065,-5.411c-5.103,2.113 -7.525,7.963 -5.411,13.065c7.85,18.951 16.982,37.591 27.14,55.401c1.845,3.234 5.221,5.048 8.695,5.048c1.68,0 3.383,-0.424 4.945,-1.315c4.797,-2.737 6.469,-8.844 3.732,-13.641z" id="svg_199"/>
    </g>
   </g>
   <g id="svg_204" transform="matrix(0.12359570944728748,0,0,0.12359570944728748,0,0) ">
    <g id="svg_203">
     <path d="m771.5493,579.82151c-1.982,-0.262 -3.995,-0.394 -5.983,-0.394c-22.717,0 -42.087,17.005 -45.055,39.555c-3.274,24.868 14.293,47.764 39.161,51.038c1.982,0.262 3.995,0.394 5.983,0.394c22.716,0 42.086,-17.005 45.055,-39.557c3.273,-24.867 -14.294,-47.762 -39.161,-51.036zm19.333,48.426c-1.664,12.637 -12.509,22.166 -25.227,22.166c-1.118,0 -2.253,-0.074 -3.372,-0.222c-13.935,-1.835 -23.777,-14.664 -21.943,-28.599c1.664,-12.636 12.508,-22.164 25.226,-22.164c1.118,0 2.253,0.074 3.372,0.222c13.934,1.836 23.778,14.664 21.944,28.597z" id="svg_202"/>
    </g>
   </g>
   <g id="svg_207" transform="matrix(0.12359570944728748,0,0,0.12359570944728748,0,0) ">
    <g id="svg_206">
     <path d="m768.9473,704.20851c-1.983,-0.262 -3.995,-0.394 -5.983,-0.394c-22.717,0 -42.087,17.005 -45.055,39.556c-1.587,12.047 1.613,23.989 9.01,33.63c7.396,9.64 18.104,15.822 30.151,17.409c1.981,0.261 3.993,0.392 5.98,0.392c22.717,0 42.088,-17.005 45.057,-39.557c3.275,-24.866 -14.293,-47.76 -39.16,-51.036zm19.333,48.427c-1.664,12.637 -12.51,22.166 -25.228,22.166c-1.117,0 -2.252,-0.075 -3.37,-0.222c-6.75,-0.89 -12.75,-4.354 -16.895,-9.755c-4.145,-5.401 -5.938,-12.093 -5.049,-18.844c1.664,-12.636 12.509,-22.165 25.226,-22.165c1.118,0 2.253,0.074 3.372,0.222c13.933,1.835 23.777,14.664 21.944,28.598z" id="svg_205"/>
    </g>
   </g>
   <g id="svg_210" transform="matrix(0.12359570944728748,0,0,0.12359570944728748,0,0) ">
    <g id="svg_209">
     <path d="m702.9913,662.78051l-30.736,-4.047c-5.473,-0.727 -10.499,3.133 -11.22,8.608c-0.722,5.476 3.133,10.499 8.608,11.22l30.736,4.047c0.443,0.059 0.883,0.087 1.318,0.087c4.941,0 9.239,-3.663 9.901,-8.695c0.723,-5.475 -3.131,-10.499 -8.607,-11.22z" id="svg_208"/>
    </g>
   </g>
   <g id="svg_213" transform="matrix(0.12359570944728748,0,0,0.12359570944728748,0,0) ">
    <g id="svg_212">
     <path d="m687.4063,736.57751l-2.714,-20.624c-0.721,-5.476 -5.743,-9.332 -11.219,-8.609c-5.476,0.721 -9.33,5.743 -8.609,11.219l2.715,20.624c0.662,5.033 4.959,8.696 9.901,8.696c0.435,0 0.875,-0.028 1.317,-0.087c5.476,-0.721 9.33,-5.743 8.609,-11.219z" id="svg_211"/>
    </g>
   </g>
   <g id="svg_214" transform="matrix(0.12359570944728748,0,0,0.12359570944728748,0,0) "/>
   <g id="svg_215" transform="matrix(0.12359570944728748,0,0,0.12359570944728748,0,0) "/>
   <g id="svg_216" transform="matrix(0.12359570944728748,0,0,0.12359570944728748,0,0) "/>
   <g id="svg_217" transform="matrix(0.12359570944728748,0,0,0.12359570944728748,0,0) "/>
   <g id="svg_218" transform="matrix(0.12359570944728748,0,0,0.12359570944728748,0,0) "/>
   <g id="svg_219" transform="matrix(0.12359570944728748,0,0,0.12359570944728748,0,0) "/>
   <g id="svg_220" transform="matrix(0.12359570944728748,0,0,0.12359570944728748,0,0) "/>
   <g id="svg_221" transform="matrix(0.12359570944728748,0,0,0.12359570944728748,0,0) "/>
   <g id="svg_222" transform="matrix(0.12359570944728748,0,0,0.12359570944728748,0,0) "/>
   <g id="svg_223" transform="matrix(0.12359570944728748,0,0,0.12359570944728748,0,0) "/>
   <g id="svg_224" transform="matrix(0.12359570944728748,0,0,0.12359570944728748,0,0) "/>
   <g id="svg_225" transform="matrix(0.12359570944728748,0,0,0.12359570944728748,0,0) "/>
   <g id="svg_226" transform="matrix(0.12359570944728748,0,0,0.12359570944728748,0,0) "/>
   <g id="svg_227" transform="matrix(0.12359570944728748,0,0,0.12359570944728748,0,0) "/>
   <g id="svg_228" transform="matrix(0.12359570944728748,0,0,0.12359570944728748,0,0) "/>
  </g>
  <g id="svg_302" stroke="null">
   <g id="svg_232" transform="matrix(0.11346887476975098,0,0,0.11346887476975098,21.169642582535744,13.79515565931797) " stroke="null">
    <g id="svg_231" stroke="null">
     <path d="m944.94678,2972.60703l-494.934,0c-4.71,0 -8.533,3.814 -8.533,8.533c0,51.755 42.112,93.867 93.867,93.867l324.267,0c51.754,0 93.866,-42.112 93.866,-93.867c0,-4.719 -3.814,-8.533 -8.533,-8.533zm-85.334,85.333l-324.266,0c-39.467,0 -72.073,-29.918 -76.331,-68.267l476.919,0c-4.258,38.35 -36.855,68.267 -76.322,68.267z" id="svg_230" stroke="null"/>
    </g>
   </g>
   <g id="svg_235" transform="matrix(0.11346887476975098,0,0,0.11346887476975098,21.169642582535744,13.79515565931797) " stroke="null">
    <g id="svg_234" stroke="null">
     <path d="m697.48878,2844.60703c-0.043,0 -0.077,0 -0.111,0c-33.63,0 -65.929,12.382 -90.931,34.876l11.409,12.681c21.871,-19.661 50.108,-30.49 79.531,-30.49c0.026,0 0.068,0 0.094,0c47.292,0 87.723,24.695 103.006,62.899l15.855,-6.332c-17.896,-44.732 -64.556,-73.634 -118.853,-73.634z" id="svg_233" stroke="null"/>
    </g>
   </g>
   <g id="svg_238" transform="matrix(0.11346887476975098,0,0,0.11346887476975098,21.169642582535744,13.79515565931797) " stroke="null">
    <g id="svg_237" stroke="null">
     <path d="m762.70878,2902.24103c-43.537,-35.951 -108.203,-29.781 -144.162,13.739l13.158,10.863c29.961,-36.267 83.857,-41.421 120.124,-11.452c5.888,4.873 11.093,10.505 15.471,16.725l13.978,-9.805c-5.257,-7.466 -11.504,-14.216 -18.569,-20.07z" id="svg_236" stroke="null"/>
    </g>
   </g>
   <g id="svg_241" transform="matrix(0.11346887476975098,0,0,0.11346887476975098,21.169642582535744,13.79515565931797) " stroke="null">
    <g id="svg_240" stroke="null">
     <path d="m745.25778,2932.38103c-26.897,-26.359 -70.195,-25.899 -96.546,0.973l12.194,11.947c19.763,-20.156 52.25,-20.489 72.405,-0.742c9.771,9.566 15.369,22.895 15.369,36.582l17.067,0c0,-18.245 -7.467,-36.02 -20.489,-48.76z" id="svg_239" stroke="null"/>
    </g>
   </g>
   <g id="svg_244" transform="matrix(0.11346887476975098,0,0,0.11346887476975098,21.169642582535744,13.79515565931797) " stroke="null">
    <g id="svg_243" stroke="null">
     <path d="m791.72178,2878.74003c-0.128,0 -0.247,0 -0.375,0l-8.533,0l0,17.067l8.567,0c48.444,0.188 89.813,37.632 93.867,86.042l16.998,-1.417c-4.77,-57.096 -53.299,-101.692 -110.524,-101.692z" id="svg_242" stroke="null"/>
    </g>
   </g>
   <g id="svg_247" transform="matrix(0.11346887476975098,0,0,0.11346887476975098,21.169642582535744,13.79515565931797) " stroke="null">
    <g id="svg_246" stroke="null">
     <path d="m842.23078,2932.45803c-15.292,-13.67 -35.004,-20.591 -55.475,-19.43c-20.48,1.135 -39.287,10.189 -52.966,25.472l12.715,11.383c10.641,-11.887 25.267,-18.935 41.199,-19.823c16.017,-0.828 31.249,4.48 43.153,15.113c10.726,9.6 17.63,22.75 19.439,37.043l16.939,-2.15c-2.331,-18.365 -11.214,-35.278 -25.004,-47.608z" id="svg_245" stroke="null"/>
    </g>
   </g>
   <g id="svg_250" transform="matrix(0.11346887476975098,0,0,0.11346887476975098,21.169642582535744,13.79515565931797) " stroke="null">
    <g id="svg_249" stroke="null">
     <path d="m801.54378,2948.27003c-22.793,-5.854 -46.071,7.97 -51.917,30.754l16.538,4.233c3.499,-13.67 17.476,-21.956 31.147,-18.449c9.054,2.313 16.137,9.387 18.449,18.449l16.538,-4.233c-3.875,-15.104 -15.651,-26.888 -30.755,-30.754z" id="svg_248" stroke="null"/>
    </g>
   </g>
   <g id="svg_253" transform="matrix(0.11346887476975098,0,0,0.11346887476975098,21.169642582535744,13.79515565931797) " stroke="null">
    <g id="svg_252" stroke="null">
     <path d="m612.32578,2878.92803c-29.534,-2.406 -58.24,6.81 -80.828,25.984c-22.596,19.174 -36.369,46.003 -38.784,75.529l17.007,1.399c2.039,-24.994 13.696,-47.693 32.811,-63.906c19.123,-16.222 43.409,-24.047 68.403,-21.982c13.867,1.126 27.554,5.436 39.586,12.442l8.593,-14.754c-14.225,-8.286 -30.404,-13.372 -46.788,-14.712z" id="svg_251" stroke="null"/>
    </g>
   </g>
   <g id="svg_256" transform="matrix(0.11346887476975098,0,0,0.11346887476975098,21.169642582535744,13.79515565931797) " stroke="null">
    <g id="svg_255" stroke="null">
     <path d="m613.00878,2913.26603c-41.975,-5.188 -80.444,24.798 -85.615,66.833l16.939,2.082c4.019,-32.691 33.886,-55.927 66.586,-51.985c27.247,3.362 48.623,24.738 51.977,51.985l16.956,-2.082c-4.32,-35.038 -31.806,-62.523 -66.843,-66.833z" id="svg_254" stroke="null"/>
    </g>
   </g>
   <g id="svg_259" transform="matrix(0.11346887476975098,0,0,0.11346887476975098,21.169642582535744,13.79515565931797) " stroke="null">
    <g id="svg_258" stroke="null">
     <path d="m614.39878,2948.48303c-11.017,-2.884 -22.519,-1.289 -32.35,4.454c-9.839,5.76 -16.845,15.01 -19.721,26.035l16.512,4.318c1.732,-6.613 5.939,-12.169 11.836,-15.616c5.897,-3.456 12.8,-4.403 19.413,-2.671c8.943,2.338 15.957,9.344 18.295,18.295l16.504,-4.326c-3.899,-14.915 -15.581,-26.598 -30.489,-30.489z" id="svg_257" stroke="null"/>
    </g>
   </g>
   <g id="svg_262" transform="matrix(0.11346887476975098,0,0,0.11346887476975098,21.169642582535744,13.79515565931797) " stroke="null">
    <g id="svg_261" stroke="null">
     <path d="m697.47978,2947.00703c-18.825,0 -34.133,15.309 -34.133,34.133l17.067,0c0,-9.412 7.654,-17.067 17.067,-17.067c9.412,0 17.067,7.654 17.067,17.067l17.067,0c-0.002,-18.824 -15.31,-34.133 -34.135,-34.133z" id="svg_260" stroke="null"/>
    </g>
   </g>
   <g id="svg_265" transform="matrix(0.11346887476975098,0,0,0.11346887476975098,21.169642582535744,13.79515565931797) " stroke="null">
    <g id="svg_264" stroke="null">
     <rect x="526.812782" y="2597.140034" width="68.267" height="17.067" id="svg_263" stroke="null"/>
    </g>
   </g>
   <g id="svg_268" transform="matrix(0.11346887476975098,0,0,0.11346887476975098,21.169642582535744,13.79515565931797) " stroke="null">
    <g id="svg_267" stroke="null">
     <rect x="543.879782" y="2631.274034" width="51.2" height="17.067" id="svg_266" stroke="null"/>
    </g>
   </g>
   <g id="svg_271" transform="matrix(0.11346887476975098,0,0,0.11346887476975098,21.169642582535744,13.79515565931797) " stroke="null">
    <g id="svg_270" stroke="null">
     <path d="m508.02278,2746.50803c-9.045,-15.812 -9.045,-35.447 0,-51.26c12.032,-21.035 12.032,-47.172 0,-68.207c-9.045,-15.812 -9.045,-35.447 0,-51.26c1.51,-2.645 1.502,-5.888 -0.026,-8.525c-1.527,-2.628 -4.343,-4.249 -7.381,-4.249l-25.003,0l0,17.067l11.947,0c-5.922,18.236 -4.045,38.494 5.649,55.433c9.045,15.812 9.045,35.447 0,51.26c-12.032,21.035 -12.032,47.172 0,68.207c9.045,15.812 9.045,35.447 0,51.26c-12.032,21.043 -12.032,47.172 -0.35,67.524c2.611,5.7 4.821,11.614 6.571,17.553l16.367,-4.821c-1.98,-6.724 -4.48,-13.389 -7.774,-20.514c-9.045,-15.804 -9.045,-35.456 0,-51.26c12.032,-21.036 12.032,-47.174 0,-68.208z" id="svg_269" stroke="null"/>
    </g>
   </g>
   <g id="svg_274" transform="matrix(0.11346887476975098,0,0,0.11346887476975098,21.169642582535744,13.79515565931797) " stroke="null">
    <g id="svg_273" stroke="null">
     <path d="m953.46278,2625.21503c-0.7,-24.969 -21.572,-44.527 -46.566,-44.032l-248.653,7.313l-13.014,-13.013c-8.055,-8.047 -18.764,-12.476 -30.139,-12.476c-0.017,0 -0.034,0 -0.043,0l-79.104,0c-3.063,0 -5.888,1.638 -7.407,4.292c-12.032,21.035 -12.032,47.172 0,68.207c9.045,15.812 9.045,35.448 0,51.26c-12.032,21.035 -12.032,47.172 0,68.207c9.045,15.812 9.045,35.447 0,51.26c-12.032,21.043 -12.032,47.172 0,68.207c1.169,2.048 2.193,4.173 3.072,6.366l15.838,-6.349c-1.161,-2.91 -2.543,-5.768 -4.096,-8.482c-9.045,-15.804 -9.045,-35.456 0,-51.26c12.032,-21.035 12.032,-47.172 0,-68.207c-9.045,-15.812 -9.045,-35.447 0,-51.26c2.338,-4.096 4.224,-8.371 5.649,-12.774l66.039,0c0.017,0 0.026,0 0.043,0c11.383,0 22.093,-4.437 30.148,-12.484l12.911,-12.911l247.381,14.541c0.887,0.051 2.125,0.034 2.645,0.077c24.969,0 45.295,-20.309 45.312,-45.286l-0.016,-1.196zm-45.303,29.414c-0.657,-0.145 -1.075,-0.017 -1.621,-0.043l-251.222,-14.762c-2.432,-0.179 -4.813,0.759 -6.537,2.483l-15.616,15.616c-4.83,4.821 -11.247,7.484 -18.091,7.484c-0.009,0 -0.017,0 -0.026,0l-62.805,0c0.811,-13.193 -2.15,-26.581 -8.892,-38.374c-8.235,-14.404 -8.969,-31.991 -2.193,-46.959l73.899,0c0.009,0 0.017,0 0.026,0c6.827,0 13.252,2.662 18.082,7.492l15.616,15.616c1.655,1.655 3.977,2.628 6.281,2.492l252.322,-7.433c15.932,-0.435 28.578,11.887 29.03,28.16c-0.017,15.573 -12.689,28.228 -28.253,28.228z" id="svg_272" stroke="null"/>
    </g>
   </g>
   <g id="svg_277" transform="matrix(0.11346887476975098,0,0,0.11346887476975098,21.169642582535744,13.79515565931797) " stroke="null">
    <g id="svg_276" stroke="null">
     <path d="m577.47578,2746.50803c-9.045,-15.812 -9.045,-35.447 -0.009,-51.251c3.413,-5.939 5.905,-12.331 7.415,-19.004l-16.648,-3.763c-1.135,5.009 -3.004,9.813 -5.572,14.285c-12.032,21.035 -12.032,47.172 0,68.207c9.045,15.812 9.045,35.456 -0.009,51.277c-11.136,19.558 -12.006,43.375 -2.33,63.693l15.403,-7.33c-7.287,-15.292 -6.622,-33.203 1.749,-47.906c12.033,-21.036 12.033,-47.173 0.001,-68.208z" id="svg_275" stroke="null"/>
    </g>
   </g>
   <g id="svg_280" transform="matrix(0.11346887476975098,0,0,0.11346887476975098,21.169642582535744,13.79515565931797) " stroke="null">
    <g id="svg_279" stroke="null">
     <rect x="475.612782" y="2597.140034" width="17.067" height="17.067" id="svg_278" stroke="null"/>
    </g>
   </g>
   <g id="svg_283" transform="matrix(0.11346887476975098,0,0,0.11346887476975098,21.169642582535744,13.79515565931797) " stroke="null">
    <g id="svg_282" stroke="null">
     <rect x="475.612782" y="2631.274034" width="25.6" height="17.067" id="svg_281" stroke="null"/>
    </g>
   </g>
   <g id="svg_286" transform="matrix(0.11346887476975098,0,0,0.11346887476975098,21.169642582535744,13.79515565931797) " stroke="null">
    <g id="svg_285" stroke="null">
     <rect x="475.612782" y="2665.407034" width="34.133" height="17.067" id="svg_284" stroke="null"/>
    </g>
   </g>
   <g id="svg_287" transform="matrix(0.11346887476975098,0,0,0.11346887476975098,21.169642582535744,13.79515565931797) " stroke="null"/>
   <g id="svg_288" transform="matrix(0.11346887476975098,0,0,0.11346887476975098,21.169642582535744,13.79515565931797) " stroke="null"/>
   <g id="svg_289" transform="matrix(0.11346887476975098,0,0,0.11346887476975098,21.169642582535744,13.79515565931797) " stroke="null"/>
   <g id="svg_290" transform="matrix(0.11346887476975098,0,0,0.11346887476975098,21.169642582535744,13.79515565931797) " stroke="null"/>
   <g id="svg_291" transform="matrix(0.11346887476975098,0,0,0.11346887476975098,21.169642582535744,13.79515565931797) " stroke="null"/>
   <g id="svg_292" transform="matrix(0.11346887476975098,0,0,0.11346887476975098,21.169642582535744,13.79515565931797) " stroke="null"/>
   <g id="svg_293" transform="matrix(0.11346887476975098,0,0,0.11346887476975098,21.169642582535744,13.79515565931797) " stroke="null"/>
   <g id="svg_294" transform="matrix(0.11346887476975098,0,0,0.11346887476975098,21.169642582535744,13.79515565931797) " stroke="null"/>
   <g id="svg_295" transform="matrix(0.11346887476975098,0,0,0.11346887476975098,21.169642582535744,13.79515565931797) " stroke="null"/>
   <g id="svg_296" transform="matrix(0.11346887476975098,0,0,0.11346887476975098,21.169642582535744,13.79515565931797) " stroke="null"/>
   <g id="svg_297" transform="matrix(0.11346887476975098,0,0,0.11346887476975098,21.169642582535744,13.79515565931797) " stroke="null"/>
   <g id="svg_298" transform="matrix(0.11346887476975098,0,0,0.11346887476975098,21.169642582535744,13.79515565931797) " stroke="null"/>
   <g id="svg_299" transform="matrix(0.11346887476975098,0,0,0.11346887476975098,21.169642582535744,13.79515565931797) " stroke="null"/>
   <g id="svg_300" transform="matrix(0.11346887476975098,0,0,0.11346887476975098,21.169642582535744,13.79515565931797) " stroke="null"/>
   <g id="svg_301" transform="matrix(0.11346887476975098,0,0,0.11346887476975098,21.169642582535744,13.79515565931797) " stroke="null"/>
  </g>
  <g id="svg_304" stroke="null">
   <path d="m279.46414,56.81379c0.4107,-0.58144 0.75726,-1.21365 1.0286,-1.88969c1.35117,-3.36545 0.54684,-6.91778 -2.1518,-9.50244c-4.38666,-4.20207 -10.30538,-6.51631 -16.66526,-6.51631c-3.27084,0 -6.42402,0.61144 -9.38153,1.81862c-2.95706,-1.20718 -6.11069,-1.81862 -9.38108,-1.81862c-3.10979,0 -6.12222,0.55606 -8.96068,1.6525c-2.83892,-1.09736 -5.85134,-1.6525 -8.96114,-1.6525c-6.35988,0 -12.2786,2.31424 -16.66572,6.51631c-2.69817,2.58466 -3.50297,6.13699 -2.15134,9.50244c0.27088,0.67604 0.6179,1.30733 1.02768,1.88877c-0.92801,0.92985 -1.41346,1.98475 -1.41346,3.08995c0,1.02445 0.41623,1.99537 1.20118,2.86338c-1.359,1.51636 -0.99491,4.48034 3.53481,5.14577c3.52788,0.52283 5.16376,-1.34286 6.30588,0.39824c0.57822,0.89339 2.15273,2.48636 4.34191,2.84722c1.7171,0.27827 3.46235,-0.22334 4.78582,-1.37515c0.60406,-0.52469 1.425,-0.40148 1.91646,0.22888c1.08628,1.39869 2.68802,2.26763 4.39497,2.38392c1.70879,0.11721 3.40098,-0.52884 4.63816,-1.77479c0.54868,-0.55145 1.371,-0.54222 1.91045,0.06784c2.46883,2.79369 6.62061,2.73878 9.04052,0c0.5376,-0.60775 1.36085,-0.62113 1.91045,-0.0683c2.60496,2.62157 6.76828,2.30824 9.03267,-0.60682c0.5173,-0.66451 1.34286,-0.72911 1.916,-0.23073c2.13887,1.85969 5.4591,2.09596 8.03591,-0.26442c1.56943,-1.28933 1.04752,-2.45683 3.87674,-1.76925c1.78171,0.44439 3.79692,0.32671 5.45034,-0.36686c0.37563,0.45592 0.58329,1.02767 0.58329,1.63727l0,1.65711c0,1.425 -1.15874,2.58419 -2.58281,2.58419l-65.49539,0c-1.42407,0 -2.58327,-1.15919 -2.58327,-2.58419l0,-0.96169c0,-0.6119 -0.49607,-1.10751 -1.10751,-1.10751s-1.10658,0.49561 -1.10658,1.10751l0,0.96169c0,2.64649 2.1518,4.79921 4.79736,4.79921l63.08656,0c0.54775,1.50714 0.3604,3.21178 -0.53853,4.66446c-1.18735,1.91969 -3.36868,3.0655 -5.83381,3.0655l-47.93305,0c-3.87259,0 -6.13145,-2.58696 -6.59199,-4.9898c-0.1149,-0.60128 -0.69542,-0.99399 -1.29579,-0.87908c-0.60036,0.11444 -0.99399,0.69496 -0.87908,1.29579c0.35348,1.84538 1.38485,3.54172 2.90398,4.77706c1.61973,1.31563 3.64648,2.01105 5.86288,2.01105l47.93305,0c3.23716,0 6.12222,-1.53805 7.71658,-4.1144c1.11443,-1.80063 1.44207,-3.89013 0.96584,-5.83058l0.09875,0c2.6451,0 4.79737,-2.15272 4.79737,-4.79921l0,-1.65711c0,-1.06552 -0.36133,-2.09504 -0.99907,-2.92614c0.26257,-0.37471 0.4287,-0.80848 0.47623,-1.26671c0.07799,-0.74896 -0.16659,-1.49376 -0.67374,-2.06505c0.78172,-0.86709 1.19704,-1.8357 1.19704,-2.8583c-0.00046,-1.10336 -0.48777,-2.15918 -1.41485,-3.08903zm-70.74775,7.34602c1.20718,0.7365 2.58188,1.24226 3.94135,1.58974c-1.80663,0.2012 -4.88181,-0.51499 -3.94135,-1.58974zm-0.71389,-4.25699c0,-0.54729 0.30872,-1.04106 0.68389,-1.4393c1.82878,1.60866 4.28791,2.54681 6.96439,2.54681l12.74976,0c-1.19427,1.67742 -4.96996,3.20948 -9.99805,3.20948c-6.12915,0 -10.39999,-2.27548 -10.39999,-4.31699zm59.3464,7.90301c-0.17766,0.14675 -0.35394,0.3461 -0.71019,0.57914c-1.31378,0.87124 -3.11256,0.904 -4.46834,-0.27504c-1.53759,-1.33547 -3.82229,-1.11858 -5.11624,0.54268c-1.45268,1.87031 -4.04841,2.08259 -5.71429,0.40563c-0.70696,-0.71065 -1.63081,-1.08444 -2.60403,-1.0526c-0.97,0.03231 -1.87031,0.46377 -2.53574,1.21596c-1.57266,1.77986 -4.16054,1.7674 -5.7226,0c-1.36916,-1.54959 -3.66909,-1.64189 -5.14023,-0.16336c-1.65803,1.67003 -4.25376,1.47437 -5.71521,-0.40747c-1.28195,-1.64604 -3.56526,-1.88738 -5.11578,-0.54037c-1.4213,1.23625 -3.40052,1.17949 -4.80475,0.02492c-1.16242,-0.95939 -0.87539,-1.01199 -1.55513,-1.70326c6.15499,0.05906 11.67824,-2.06966 12.70084,-5.42173l0.04061,0c1.61696,5.2999 13.97816,7.06546 21.05423,3.72954c2.07012,-0.97599 3.39267,-2.27362 3.83706,-3.72954l0.04015,0c1.1352,3.7217 7.35848,5.47572 12.70914,5.42173c-0.58929,0.60451 -0.5293,0.83663 -1.1795,1.37377zm-34.01441,-6.7955l19.99749,0c-1.19473,1.67742 -4.96996,3.20948 -9.99851,3.20948c-5.02902,0 -8.80425,-1.53206 -9.99898,-3.20948l0,0zm44.8191,3.58603c-0.05999,0.57406 -1.99536,1.39408 -4.14117,1.15273c1.35947,-0.34794 2.73602,-0.85463 3.94505,-1.59343c0.12228,0.14075 0.21688,0.24135 0.19612,0.4407zm-9.88868,-0.37655c-5.02856,0 -8.80425,-1.53206 -9.99851,-3.20948l12.74929,0c2.67648,0 5.13561,-0.93723 6.96485,-2.54635c0.37102,0.39409 0.68389,0.88924 0.68389,1.43884c0,2.04151 -4.2713,4.31699 -10.39952,4.31699zm10.17294,-10.12034c-1.14489,2.8523 -4.05856,4.69584 -7.42216,4.69584l-55.36491,0c-3.3636,0 -6.27681,-1.84354 -7.42216,-4.69584c-1.00183,-2.49605 -0.3927,-5.14208 1.6285,-7.07838c3.97319,-3.80522 9.34739,-5.90072 15.13413,-5.90072c2.06735,0 4.08579,0.26903 6.02901,0.80156c-2.49052,1.37193 -5.64876,3.70232 -6.84718,6.41941c-0.24642,0.56021 0.00692,1.21365 0.56621,1.46053c0.55837,0.24642 1.21273,-0.00554 1.46007,-0.56622c0.35486,-0.80479 0.88647,-1.55005 1.58051,-2.21456c1.88,-1.80062 4.0964,-3.22885 6.58784,-4.24499c0.00138,-0.00046 0.00184,-0.00092 0.00277,-0.00092c2.69402,-1.09828 5.56754,-1.65481 8.54305,-1.65481c2.26856,0 4.47389,0.32349 6.58415,0.96123c-1.63865,0.93354 -3.14117,2.05074 -4.4868,3.34006c-0.65574,0.62805 -1.25333,1.5699 -1.77617,2.80108c-0.31149,0.73373 0.23258,1.54083 1.01891,1.54083c0.43055,0 0.84033,-0.25335 1.01984,-0.67512c0.39824,-0.93908 0.83663,-1.65389 1.26902,-2.06736c1.7757,-1.70141 3.85875,-3.0738 6.18959,-4.07887l0.00047,0c2.80477,-1.20903 5.8135,-1.82139 8.94314,-1.82139c5.78628,0 11.1614,2.09504 15.13367,5.90072c2.02213,1.93584 2.63034,4.58187 1.6285,7.07792zm0,0" id="svg_303" stroke="null"/>
  </g>
 </g>
</svg>